<?xml version="1.0" encoding="UTF-8" standalone="no"?>
<svg
   xmlns:dc="http://purl.org/dc/elements/1.1/"
   xmlns:cc="http://creativecommons.org/ns#"
   xmlns:rdf="http://www.w3.org/1999/02/22-rdf-syntax-ns#"
   xmlns:svg="http://www.w3.org/2000/svg"
   xmlns="http://www.w3.org/2000/svg"
   xmlns:sodipodi="http://sodipodi.sourceforge.net/DTD/sodipodi-0.dtd"
   xmlns:inkscape="http://www.inkscape.org/namespaces/inkscape"
   height="600"
   width="1300"
   version="1.1"
   id="svg2"
   inkscape:version="0.48.4 r9939"
   sodipodi:docname="jelly.svg">
  <metadata
     id="metadata12">
    <rdf:RDF>
      <cc:Work
         rdf:about="">
        <dc:format>image/svg+xml</dc:format>
        <dc:type
           rdf:resource="http://purl.org/dc/dcmitype/StillImage" />
        <dc:title />
      </cc:Work>
    </rdf:RDF>
  </metadata>
  <defs
     id="defs10" />
  <sodipodi:namedview
     pagecolor="#ffffff"
     bordercolor="#666666"
     borderopacity="1"
     objecttolerance="10"
     gridtolerance="10"
     guidetolerance="10"
     inkscape:pageopacity="0"
     inkscape:pageshadow="2"
     inkscape:window-width="1360"
     inkscape:window-height="719"
     id="namedview8"
     showgrid="false"
     inkscape:zoom="1"
     inkscape:cx="678.28639"
     inkscape:cy="246.10675"
     inkscape:window-x="0"
     inkscape:window-y="25"
     inkscape:window-maximized="1"
     inkscape:current-layer="svg2" />
  <path
     inkscape:connector-curvature="0"
     id="jelly-image"
     d="m 641.92934,229.29436 c 69.757,0.91643 149.7,-25.74 209,11 90.469,56.047 244.75996,261.97 156.99996,278 -254.72996,46.535 -491.47996,41.197 -714.99996,-2 -89.997,-17.392 66.546,-226.35 159,-282 54.28,-32.674 126.65,-5.8322 190,-5 z"
     style="fill:#0050a0;fill-opacity:0.58823529;stroke:none;stroke-width:1px" />
  <path
     id="jelly-circle"
     d="m 650,335 c 27.614,0 50,22.386 50,50 0,27.614 -22.386,50 -50,50 -27.614,0 -50,-22.386 -50,-50 0,-27.614 22.386,-50 50,-50 z"
     inkscape:connector-curvature="0"
     style="fill:#0050a0;fill-opacity:0.58823529;stroke:none" />
  <g
     id="jelly-text-1">
    <path
       id="path4611"
       d="M 31.33,96 C 30.72333,96 30.3033,95.53333 30.07,94.6 30.02333,94.46 30,94.22667 30,93.9 c 0,-0.46667 0.09333,-1.1667 0.28,-2.1 0.09333,-0.60667 0.16333,-1.0733 0.21,-1.4 l 0.21,-0.84 c 1.4,-6.58 2.7767,-12.367 4.13,-17.36 l 4.9,-22.12 c 0,-0.09333 0.07,-0.23333 0.21,-0.42 0.14,-0.18667 0.30333,-0.30333 0.49,-0.35 l 0.35,0 c 0,0.04667 0.07,0.07 0.21,0.07 0.56,0 1.19,-0.07 1.89,-0.21 0.7,-0.14 1.33,-0.21 1.89,-0.21 1.0267,0 1.9833,0.07 2.87,0.21 0.42,0 0.88667,0.02333 1.4,0.07 0.51333,0.04667 1.05,0.07 1.61,0.07 0.18667,0 0.39667,-0.04667 0.63,-0.14 l 1.26,0 1.61,0 1.68,-0.07 c 0.32667,-0.04667 0.72333,-0.07 1.19,-0.07 0.37333,0 0.56,-0.02333 0.56,-0.07 l 1.12,0 2.38,0 2.94,0 c 2.6133,0 4.34,0.04667 5.18,0.14 0.14,0 0.32667,0.02333 0.56,0.07 0.28,0 0.44333,0.04667 0.49,0.14 0.32667,0 0.65333,-0.02333 0.98,-0.07 0.32667,-0.04667 0.63,-0.07 0.91,-0.07 0.65333,-0.14 1.2833,-0.21 1.89,-0.21 0.28,0 0.56,0.07 0.84,0.21 0.28,0.14 0.58333,0.21 0.91,0.21 l 0.35,-0.07 0.21,0 c 0.14,0.09333 0.28,0.23333 0.42,0.42 0.18667,0.14 0.28,0.25667 0.28,0.35 l 4.9,22.12 c 1.4933,5.46 2.8467,11.247 4.06,17.36 0,0.28 0.09333,0.58333 0.28,0.91 0.04667,0.32667 0.11667,0.77 0.21,1.33 0.09333,0.56 0.14,1.0267 0.14,1.4 0.04667,0.18667 0.07,0.44333 0.07,0.77 0,0.65333 -0.14,1.19 -0.42,1.61 C 86.09333,95.86 85.81333,96 85.44,96 l -0.91,0 c -0.7,0 -1.2367,-0.02333 -1.61,-0.07 l -1.82,0 -1.75,0 -1.4,0 c -0.37333,0 -0.56,-0.02333 -0.56,-0.07 l -4.41,0 0,-0.14 c -0.18667,-0.09333 -0.42,-0.14 -0.7,-0.14 l -0.07,0.07 -0.07,0.07 c 0,0.09333 -0.04667,0.14 -0.14,0.14 l -0.21,0 -0.56,0 c -0.23333,-0.09333 -0.7,-0.14 -1.4,-0.14 -1.4,-0.09333 -2.4967,-0.14 -3.29,-0.14 -0.28,-0.42 -0.58333,-1.26 -0.91,-2.52 -0.28,-1.26 -0.58333,-2.66 -0.91,-4.2 -0.09333,-0.74667 -0.18667,-1.26 -0.28,-1.54 -0.98,0.18667 -2.2633,0.28 -3.85,0.28 l -2.17,0 -2.03,0 -0.49,2.24 c -0.60667,3.08 -1.0967,4.9933 -1.47,5.74 -0.18667,0 -0.42,0.04667 -0.7,0.14 l -0.28,0.14 -0.07,0 -0.28,0 c -0.28,0 -0.49,-0.04667 -0.63,-0.14 -0.09333,-0.09333 -0.21,-0.14 -0.35,-0.14 l -3.15,0.14 -1.12,0 -1.05,0 c -0.18667,0.09333 -0.42,0.14 -0.7,0.14 l -0.28,0 -6.44,0 -0.63,0 c -0.51333,0.04667 -1.5633,0.07 -3.15,0.07 l -1.82,0 C 33.40667,95.97667 32.87,96 32.17,96 z"
       inkscape:connector-curvature="0"
       style="fill:#0050a0;fill-opacity:0.58823529;stroke:none" />
    <path
       id="path4613"
       d="m 97.193,95.65 q -0.14,0 -0.21,-0.28 -0.49,-0.63 -0.7,-1.54 -0.21,-0.35 -0.35,-0.91 -0.63,-1.26 -0.91,-3.5 -0.28,-3.22 -0.28,-5.11 -0.07,-0.84 -0.07,-2.31 l 0,-1.68 q 0,-2.1 -0.07,-3.29 -0.07,-1.26 -0.07,-4.97 0,-9.94 0.42,-15.33 0,-0.84 2.38,-1.26 l 2.1,0 1.75,0 q 3.99,0 5.95,0.14 2.94,0.21 5.95,0.21 0.7,0 1.05,-0.07 l 1.05,0 0.35,0.28 q 2.31,-0.49 4.76,-0.63 2.45,-0.14 5.95,-0.14 0.14,0 0.35,0.21 l 2.24,0 q 0.56,0 0.84,0.63 0.35,0.63 0.56,1.82 0.28,0.91 0.42,2.24 0.28,1.75 0.49,2.31 0,1.96 -0.7,1.96 -0.07,0 -0.21,-0.21 l -0.28,-0.07 q -0.35,-0.07 -0.77,0.07 -0.42,0.21 -0.91,0.21 -0.42,0 -0.7,-0.21 -0.14,-0.07 -0.63,-0.07 -0.63,0 -1.47,0.21 -0.28,0.07 -1.12,0.21 -0.77,0.14 -1.82,0.14 -3.01,0 -4.34,0.14 -0.77,0.07 -1.47,0.42 l 0,-0.14 q -0.28,0 -0.49,0.7 -0.49,1.19 -0.63,3.29 -0.07,0.63 -0.07,1.4 0,0.77 0.21,1.05 0.28,0.28 0.84,0.28 0.42,0 0.7,-0.28 0.14,0 0.35,0.07 0.21,0.07 0.35,0.21 l 5.95,0 q 0.07,-0.14 0.21,-0.21 0.14,-0.07 0.28,-0.07 0.7,0 1.05,0.21 0.42,0.21 1.68,0.42 0.7,0 0.98,0.42 0.35,0.49 0.35,0.91 l 1.47,4.62 q 0.21,1.12 -2.1,1.47 -1.33,0.28 -5.11,0.28 l -3.01,0 -2.1,0 q -0.98,0 -1.47,0.14 -0.49,0.07 -0.63,0.49 -0.28,0.35 -0.28,1.12 l 0,0.28 q 0,0.35 0.07,0.49 l -0.07,1.54 q -0.07,0.49 -0.07,1.47 l 0,0.7 0,0.63 0,0.42 q 3.15,0 6.44,-0.21 3.22,-0.21 6.37,-0.21 0.21,0 0.35,0.35 0.14,0.28 0.14,0.7 0.14,0.42 0.14,0.91 0.14,1.05 0.42,1.96 l 0.49,2.03 0,1.4 0,0.21 0,0.56 -0.56,0.49 -0.49,0 -0.21,0 q -0.77,0 -0.98,-0.07 -0.21,-0.14 -0.49,-0.14 -0.14,0.07 -0.42,0.21 -0.28,0.14 -0.49,0.28 l 0,-0.35 -0.84,0.07 -1.05,0 q -0.28,0 -0.42,-0.14 l -0.56,-0.07 q -2.59,0 -3.64,0.49 l -22.19,0 z"
       inkscape:connector-curvature="0"
       style="fill:#0050a0;fill-opacity:0.58823529;stroke:none" />
    <path
       id="path4615"
       d="m 164.383,110 c -0.14,0 -0.25667,-0.0467 -0.35,-0.14 -0.56,-0.32667 -1.12,-0.77 -1.68,-1.33 -0.0933,-0.23333 -0.18667,-0.35 -0.28,-0.35 l -0.28,-0.14 -0.21,-0.28 -4.9,-8.05 c 0,-0.0933 -0.11667,-0.30333 -0.35,-0.63 l -0.56,-0.98 c -3.8733,-0.23333 -6.9533,-0.93333 -9.24,-2.1 -3.08,-1.3067 -5.39,-3.3367 -6.93,-6.09 -1.7733,-3.1733 -2.66,-7.3267 -2.66,-12.46 0,-8.3533 1.9367,-14.397 5.81,-18.13 1.96,-1.9133 4.5033,-3.3133 7.63,-4.2 3.1733,-0.93333 7.0233,-1.4 11.55,-1.4 3.36,0 6.6267,0.56 9.8,1.68 3.5933,1.2133 6.5567,3.3133 8.89,6.3 2.5667,3.5 3.85,7.8867 3.85,13.16 0,6.2533 -0.98,11.27 -2.94,15.05 -1.8667,3.1733 -4.6667,5.4833 -8.4,6.93 0.65333,0.7 1.5867,1.9833 2.8,3.85 0.84,1.4467 1.26,2.4033 1.26,2.87 -0.0467,0.79333 -0.74667,1.5867 -2.1,2.38 -0.32667,0.14 -0.63,0.28 -0.91,0.42 l -0.84,0.42 c -0.79333,0.51333 -1.26,0.81667 -1.4,0.91 -0.28,0.0467 -0.65333,0.16333 -1.12,0.35 -0.0933,0.0467 -0.28,0.11667 -0.56,0.21 -0.23333,0.0933 -0.44333,0.14 -0.63,0.14 -0.32667,0.18667 -0.60667,0.30333 -0.84,0.35 -1.0733,0.42 -2.0767,0.7 -3.01,0.84 -0.23333,0.0467 -0.42,0.0933 -0.56,0.14 -0.14,0.0467 -0.23333,0.07 -0.28,0.07 0,0.0467 -0.0233,0.0933 -0.07,0.14 -0.0467,0.0467 -0.0933,0.0467 -0.14,0 l -0.21,0 -0.07,0.07 z"
       inkscape:connector-curvature="0"
       style="fill:#0050a0;fill-opacity:0.58823529;stroke:none" />
    <path
       id="path4617"
       d="m 205.403,96.98 q -2.8,0.14 -4.76,-0.14 -1.61,-0.35 -2.94,-0.98 -1.33,-0.63 -2.45,-1.96 -2.24,-2.8 -3.01,-7.35 -0.56,-3.71 -0.42,-8.12 l 0,-3.08 q 0,-0.63 0.07,-0.98 l 0,-1.4 0,-1.26 0,-0.7 0.21,-0.49 q 0,-0.07 0,-0.21 0.07,-0.14 0.07,-0.49 0.21,-2.52 0.21,-4.06 l 0.14,-2.59 q 0.07,-1.75 0.07,-4.06 0,-0.91 -0.07,-1.26 -0.14,-0.84 -0.14,-1.33 0,-1.05 2.17,-1.05 l 0.98,0 q 0.84,0 1.12,-0.14 l 8.54,0.14 q 0,0 0.07,0.14 0.14,0.07 0.21,0.07 l 0.56,-0.21 q 3.64,0 4.69,0.7 0.7,0.49 0.98,1.47 0.35,0.98 0.35,2.66 0,1.12 0.14,3.08 0.14,0.98 0.14,3.08 l 0,0.7 q -0.14,2.03 -0.28,6.65 l -0.07,3.36 0,3.01 q -0.14,0.84 -0.14,2.24 l 0,1.05 0,1.05 q -0.07,0.98 0.28,2.73 0.35,0.56 0.63,0.56 0.42,0 3.15,-1.05 l 1.68,-0.84 q 0.7,-0.28 0.7,-0.56 l 0,-23.03 q -0.21,-1.47 -0.21,-2.31 -0.07,-0.35 -0.07,-1.05 l 0,-1.05 0,-0.7 q 0,-0.84 0.35,-1.19 0.14,-0.21 0.7,-0.21 0.14,0 0.28,0.14 0.14,0.07 0.14,0.21 l 0,0.14 q 0.7,-0.28 3.01,-0.49 1.89,-0.21 4.2,-0.21 l 1.75,0 1.12,0 1.33,0 7.35,0.21 q 0.14,0 0.21,0.07 0.14,0.07 0.14,0.14 0.07,0 0.07,0.07 0,0.07 0,0.07 l 0,0.35 q -0.07,0 -0.07,0.21 l 0.35,-0.07 q 0.07,-0.14 0.21,-0.14 0.21,0 0.21,0.35 0,12.25 -0.14,20.37 -0.07,8.05 -0.56,16.31 0,0.35 -0.56,1.05 -0.28,0.35 -0.49,0.56 -0.07,0.14 -0.21,0.21 -0.14,0.07 -0.21,0.14 -0.07,-0.07 -0.49,-0.14 -0.42,-0.14 -0.7,-0.14 l -0.21,0.14 q -0.14,0.14 -0.28,0.14 -2.8,0.49 -8.82,0.49 l -3.08,0 q -1.75,0 -3.08,-0.28 -0.49,-0.35 -1.05,-1.75 -0.07,-0.49 -0.28,-0.84 -0.14,-0.35 -0.35,-0.35 -0.56,0 -1.75,0.77 -0.14,0.14 -0.42,0.35 -0.21,0.14 -0.42,0.35 -0.56,0.42 -0.77,0.7 -1.89,1.05 -4.48,1.54 -1.75,0.42 -3.22,0.42 -1.61,0 -2.38,0.07 z"
       inkscape:connector-curvature="0"
       style="fill:#0050a0;fill-opacity:0.58823529;stroke:none" />
    <path
       id="path4619"
       d="m 268.043,97.68 c -0.37333,0 -0.88667,-0.04667 -1.54,-0.14 -0.32667,-0.09333 -0.84,-0.14 -1.54,-0.14 -1.7733,0 -3.9667,-0.39667 -6.58,-1.19 l -0.49,0 c -0.32667,0 -0.67667,-0.09333 -1.05,-0.28 -0.0933,-0.09333 -0.21,-0.16333 -0.35,-0.21 -0.14,-0.09333 -0.30333,-0.21 -0.49,-0.35 l -1.47,-0.84 c -1.4,-0.79333 -2.6367,-1.89 -3.71,-3.29 -1.0733,-1.4467 -1.9367,-3.0333 -2.59,-4.76 -1.26,-3.1733 -1.89,-6.4167 -1.89,-9.73 0,-3.6867 0.74667,-7.2333 2.24,-10.64 1.5867,-3.5933 3.71,-6.44 6.37,-8.54 2.94,-2.3333 6.2067,-3.5 9.8,-3.5 1.12,0 1.9833,0.04667 2.59,0.14 0,-0.09333 0.07,-0.14 0.21,-0.14 l 0.21,0 c 3.2667,0 6.1833,0.11667 8.75,0.35 2.1933,0.32667 4.2233,1.0033 6.09,2.03 3.7333,2.4733 6.4167,5.18 8.05,8.12 1.7267,3.2667 2.59,7.1167 2.59,11.55 0,4.4333 -1.05,8.5867 -3.15,12.46 l -0.7,1.12 c -0.18667,0.28 -0.30333,0.42 -0.35,0.42 l -0.21,0.35 -0.49,0.28 c -2.0067,2.9867 -5.04,5.0167 -9.1,6.09 -2.7067,0.56 -6.44,0.84 -11.2,0.84 z"
       inkscape:connector-curvature="0"
       style="fill:#0050a0;fill-opacity:0.58823529;stroke:none" />
    <path
       id="path4621"
       d="m 332.643,96.7 c -2.0533,-2.0067 -3.8033,-4.0367 -5.25,-6.09 -1.0267,-1.3533 -2.6133,-3.7567 -4.76,-7.21 l -1.19,-1.89 c -0.0467,-0.04667 -0.0933,-0.07 -0.14,-0.07 l 0,-0.07 -0.35,0 -0.28,0.14 c -0.0467,0.60667 -0.07,2.24 -0.07,4.9 0,1.7267 -0.0933,3.7567 -0.28,6.09 l -0.07,2.1 c -0.18667,0.51333 -0.30333,0.77 -0.35,0.77 l -0.49,0 -0.21,0 c -5.1333,0.37333 -8.8667,0.56 -11.2,0.56 l -1.05,0 -1.33,0 c -0.51333,0 -0.88667,-0.02333 -1.12,-0.07 l -0.49,0 -2.17,-0.7 -0.14,-0.49 c -0.0933,0 -0.16333,-0.09333 -0.21,-0.28 l 0,-0.42 c -0.14,-1.96 -0.25667,-3.3833 -0.35,-4.27 -0.18667,-2.52 -0.30333,-4.3633 -0.35,-5.53 -0.0933,-1.12 -0.14,-1.8433 -0.14,-2.17 l -0.35,-3.85 -0.07,-2.1 c -0.0467,-0.42 -0.07,-1.0033 -0.07,-1.75 l 0,-0.63 c 0.0933,-0.23333 0.14,-0.60667 0.14,-1.12 l 0,-1.19 c 0.0467,-0.18667 0.07,-0.39667 0.07,-0.63 l -0.07,-0.56 0,-0.7 c 0,-0.32667 -0.0467,-0.58333 -0.14,-0.77 l 0,-0.42 0.07,-1.75 c 0.0467,-0.32667 0.07,-0.81667 0.07,-1.47 0.0933,-1.4 0.14,-2.73 0.14,-3.99 l 0,-0.7 c -0.0467,-0.14 -0.07,-0.44333 -0.07,-0.91 l 0,-0.98 0,-0.7 c -0.14,-0.14 -0.21,-0.28 -0.21,-0.42 0,-0.65333 0.58333,-1.12 1.75,-1.4 0.60667,-0.18667 1.47,-0.28 2.59,-0.28 10.92,0 19.087,0.37333 24.5,1.12 5.32,0.74667 9.0533,2.03 11.2,3.85 0.93333,0.88667 1.5867,1.9367 1.96,3.15 0.42,1.1667 0.63,2.5667 0.63,4.2 0,2.6133 -0.74667,4.8067 -2.24,6.58 -0.98,0.98 -2.1233,1.7967 -3.43,2.45 0.28,0.7 1.0967,2.1 2.45,4.2 0.28,0.32667 0.53667,0.67667 0.77,1.05 0.28,0.37333 0.60667,0.77 0.98,1.19 0.88667,1.2133 1.9133,2.5433 3.08,3.99 0.0467,0.18667 0.23333,0.58333 0.56,1.19 0.23333,0.09333 0.35,0.21 0.35,0.35 0.0467,0.09333 0.0233,0.23333 -0.07,0.42 -0.37333,0.56 -1.47,1.3767 -3.29,2.45 -0.23333,0.23333 -0.51333,0.46667 -0.84,0.7 -0.93333,0.74667 -2.2167,1.5167 -3.85,2.31 -1.4933,0.79333 -2.7767,1.3533 -3.85,1.68 -0.42,0.23333 -0.67667,0.28 -0.77,0.14 z"
       inkscape:connector-curvature="0"
       style="fill:#0050a0;fill-opacity:0.58823529;stroke:none" />
    <path
       id="path4623"
       d="m 355.463,95.65 q -0.14,0 -0.21,-0.28 -0.49,-0.63 -0.7,-1.54 -0.21,-0.35 -0.35,-0.91 -0.63,-1.26 -0.91,-3.5 -0.28,-3.22 -0.28,-5.11 -0.07,-0.84 -0.07,-2.31 l 0,-1.68 q 0,-2.1 -0.07,-3.29 -0.07,-1.26 -0.07,-4.97 0,-9.94 0.42,-15.33 0,-0.84 2.38,-1.26 l 2.1,0 1.75,0 q 3.99,0 5.95,0.14 2.94,0.21 5.95,0.21 0.7,0 1.05,-0.07 l 1.05,0 0.35,0.28 q 2.31,-0.49 4.76,-0.63 2.45,-0.14 5.95,-0.14 0.14,0 0.35,0.21 l 2.24,0 q 0.56,0 0.84,0.63 0.35,0.63 0.56,1.82 0.28,0.91 0.42,2.24 0.28,1.75 0.49,2.31 0,1.96 -0.7,1.96 -0.07,0 -0.21,-0.21 l -0.28,-0.07 q -0.35,-0.07 -0.77,0.07 -0.42,0.21 -0.91,0.21 -0.42,0 -0.7,-0.21 -0.14,-0.07 -0.63,-0.07 -0.63,0 -1.47,0.21 -0.28,0.07 -1.12,0.21 -0.77,0.14 -1.82,0.14 -3.01,0 -4.34,0.14 -0.77,0.07 -1.47,0.42 l 0,-0.14 q -0.28,0 -0.49,0.7 -0.49,1.19 -0.63,3.29 -0.07,0.63 -0.07,1.4 0,0.77 0.21,1.05 0.28,0.28 0.84,0.28 0.42,0 0.7,-0.28 0.14,0 0.35,0.07 0.21,0.07 0.35,0.21 l 5.95,0 q 0.07,-0.14 0.21,-0.21 0.14,-0.07 0.28,-0.07 0.7,0 1.05,0.21 0.42,0.21 1.68,0.42 0.7,0 0.98,0.42 0.35,0.49 0.35,0.91 l 1.47,4.62 q 0.21,1.12 -2.1,1.47 -1.33,0.28 -5.11,0.28 l -3.01,0 -2.1,0 q -0.98,0 -1.47,0.14 -0.49,0.07 -0.63,0.49 -0.28,0.35 -0.28,1.12 l 0,0.28 q 0,0.35 0.07,0.49 l -0.07,1.54 q -0.07,0.49 -0.07,1.47 l 0,0.7 0,0.63 0,0.42 q 3.15,0 6.44,-0.21 3.22,-0.21 6.37,-0.21 0.21,0 0.35,0.35 0.14,0.28 0.14,0.7 0.14,0.42 0.14,0.91 0.14,1.05 0.42,1.96 l 0.49,2.03 0,1.4 0,0.21 0,0.56 -0.56,0.49 -0.49,0 -0.21,0 q -0.77,0 -0.98,-0.07 -0.21,-0.14 -0.49,-0.14 -0.14,0.07 -0.42,0.21 -0.28,0.14 -0.49,0.28 l 0,-0.35 -0.84,0.07 -1.05,0 q -0.28,0 -0.42,-0.14 l -0.56,-0.07 q -2.59,0 -3.64,0.49 l -22.19,0 z"
       inkscape:connector-curvature="0"
       style="fill:#0050a0;fill-opacity:0.58823529;stroke:none" />
    <path
       id="path4625"
       d="m 397.793,96 c -0.88667,0 -1.2367,-0.79333 -1.05,-2.38 0,-0.56 0.11667,-1.19 0.35,-1.89 0,-0.32667 0.0233,-0.58333 0.07,-0.77 0.0467,-0.23333 0.07,-0.42 0.07,-0.56 1.0733,-5.0867 2.2633,-10.103 3.57,-15.05 l 4.76,-18.62 c 0,-0.09333 0.07,-0.21 0.21,-0.35 0.14,-0.14 0.28,-0.25667 0.42,-0.35 l 0.49,0 c 0.56,0 1.0033,-0.07 1.33,-0.21 0.28,-0.04667 0.77,-0.07 1.47,-0.07 1.12,0 1.96,0.02333 2.52,0.07 0.84,0.14 1.7033,0.21 2.59,0.21 l 3.64,-0.07 c 0.37333,-0.09333 0.81667,-0.14 1.33,-0.14 l 3.08,-0.14 2.31,0 c 0.88667,0 1.75,0.02333 2.59,0.07 l 1.96,0 c 0.46667,0.04667 1.1433,0.07 2.03,0.07 l 2.66,0 c 0.14,0 0.28,0.02333 0.42,0.07 0.14,0.04667 0.25667,0.09333 0.35,0.14 0.18667,0.09333 0.42,0.14 0.7,0.14 l 0.63,0 c 0.32667,0.23333 0.49,0.46667 0.49,0.7 l 4.97,18.48 c 1.54,5.9267 2.7533,10.943 3.64,15.05 0,0.23333 0.07,0.67667 0.21,1.33 0.18667,0.93333 0.28,1.68 0.28,2.24 0,0.32667 -0.0467,0.77 -0.14,1.33 -0.23333,0.46667 -0.56,0.7 -0.98,0.7 l -0.77,0 c -0.60667,0 -1.0733,-0.02333 -1.4,-0.07 l -1.54,0 -1.47,0 -1.19,0 c -0.32667,0 -0.51333,-0.02333 -0.56,-0.07 l -3.85,0 -0.07,-0.14 c -0.0933,-0.09333 -0.23333,-0.14 -0.42,-0.14 l -0.21,0.14 c 0,0.09333 -0.0467,0.14 -0.14,0.14 l -0.21,0 -0.49,0 c -0.23333,-0.09333 -0.65333,-0.14 -1.26,-0.14 -1.12,-0.09333 -2.0533,-0.14 -2.8,-0.14 -0.51333,-1.0733 -1.12,-3.43 -1.82,-7.07 -0.98,0.14 -2.1,0.21 -3.36,0.21 l -1.82,0 -1.75,0 c -0.18667,0.7 -0.30333,1.2833 -0.35,1.75 -0.0467,0.23333 -0.23333,1.0267 -0.56,2.38 -0.32667,1.3533 -0.63,2.2633 -0.91,2.73 l -0.42,0.14 c -0.14,0.04667 -0.25667,0.09333 -0.35,0.14 l -0.14,0 -0.14,0 c -0.28,0 -0.46667,-0.04667 -0.56,-0.14 -0.18667,-0.09333 -0.30333,-0.14 -0.35,-0.14 l -2.66,0.14 -1.96,0 c -0.23333,0.04667 -0.42,0.09333 -0.56,0.14 l -0.28,0 -5.6,0 -0.56,0 c -0.42,0.04667 -1.2833,0.07 -2.59,0.07 l -1.68,0 c -0.28,0.04667 -0.72333,0.07 -1.33,0.07 z"
       inkscape:connector-curvature="0"
       style="fill:#0050a0;fill-opacity:0.58823529;stroke:none" />
  </g>
  <g
     id="jelly-text-2">
    <path
       id="path4703"
       d="m 119.8875,98 q -4.62,0 -7.7,-0.42 -3.99,-0.56 -7.21,-2.03 -0.42,-0.21 -1.26,-0.63 -0.77,-0.49 -1.33,-0.91 -2.31,-1.96 -3.78,-4.41 -1.19,-1.26 -2.17,-3.5 -1.89,-4.9 -1.89,-11.69 0,-7.98 3.29,-14 2.87,-5.74 7.63,-8.96 4.83,-3.29 10.92,-3.71 l 0.84,-0.07 0.91,0 q 5.46,0 11.76,2.24 0.56,0.28 2.45,1.12 1.89,0.84 3.5,1.89 l -1.26,9.1 -4.13,-1.05 q -2.24,-0.56 -4.2,-0.56 -3.92,0 -5.88,2.94 -2.1,3.08 -2.1,10.01 0,2.24 0.21,3.15 0.28,4.41 1.96,6.51 1.61,1.82 3.85,1.82 2.1,0 4.69,-1.33 2.24,-1.05 4.9,-2.87 l 0.7,11.48 q -2.73,2.52 -7,4.27 -4.06,1.61 -7.7,1.61 z"
       inkscape:connector-curvature="0"
       style="fill:#0050a0;fill-opacity:0.58823529;stroke:none" />
    <path
       id="path4705"
       d="m 166.4925,105 q -0.42,0 -2.1,-0.56 -0.28,-0.07 -0.84,-0.35 -0.49,-0.21 -0.91,-0.21 -0.28,0 -0.98,-0.35 -0.49,-0.35 -0.91,-0.35 l -0.84,-0.21 q -0.42,0 -0.56,-0.07 -0.21,0 -0.21,-0.07 -2.24,-0.49 -4.55,-1.61 l -4.55,-1.89 q -0.49,-0.21 -0.49,-0.7 0,-0.42 0.21,-0.84 l 1.89,-3.29 q 0.7,-1.33 1.96,-3.15 0.49,-0.49 0.98,-1.75 0.42,-0.98 0.42,-1.19 -1.05,-2.03 -2.66,-4.34 -1.61,-2.8 -2.59,-3.71 -0.14,-0.35 -0.63,-1.12 -1.12,-1.96 -1.05,-1.82 l -1.19,-2.1 q -0.49,-0.7 -1.19,-2.1 -0.42,-0.7 -0.91,-1.75 -0.63,-1.05 -0.7,-1.26 -0.56,-0.63 -1.89,-3.36 -1.26,-2.8 -1.26,-3.36 0,-0.28 0.56,-0.7 0.56,-0.49 1.26,-0.98 2.24,-1.05 2.94,-1.26 0.91,-0.42 1.54,-0.7 0.7,-0.28 1.12,-0.49 1.61,-0.77 4.48,-1.89 0.56,-0.28 2.66,-1.12 0.77,-0.21 1.4,-0.21 0.42,0 0.7,0.28 0.28,0.14 0.84,1.12 l 2.45,5.32 q 2.1,4.41 2.94,5.95 0.14,0.21 0.28,0.56 0.14,0.28 0.28,0.42 0.42,0.56 0.77,0.56 0.21,0 0.35,-0.21 0.21,-0.21 0.28,-0.35 l 4.76,-12.53 q 0.28,-0.91 1.19,-1.4 0.77,-0.49 1.89,-0.35 4.55,1.47 6.72,2.38 4.27,1.75 6.3,3.08 0.7,0.35 0.91,0.91 0.28,0.49 0.07,0.98 -0.07,0.63 -0.35,1.05 l -0.42,0.84 -11.2,24.29 -0.56,1.4 -6.86,13.09 q -0.49,0.84 -0.91,1.12 -0.35,0.35 -0.84,0.35 z"
       inkscape:connector-curvature="0"
       style="fill:#0050a0;fill-opacity:0.58823529;stroke:none" />
    <path
       id="path4707"
       d="m 195.0125,96.4 c -0.88667,0 -1.2367,-0.79333 -1.05,-2.38 0,-0.56 0.11667,-1.19 0.35,-1.89 0,-0.32667 0.0233,-0.58333 0.07,-0.77 0.0467,-0.23333 0.07,-0.42 0.07,-0.56 1.0733,-5.0867 2.2633,-10.103 3.57,-15.05 l 4.76,-18.62 c 0,-0.09333 0.07,-0.21 0.21,-0.35 0.14,-0.14 0.28,-0.25667 0.42,-0.35 l 0.49,0 c 0.56,0 1.0033,-0.07 1.33,-0.21 0.28,-0.04667 0.77,-0.07 1.47,-0.07 1.12,0 1.96,0.02333 2.52,0.07 0.84,0.14 1.7033,0.21 2.59,0.21 l 3.64,-0.07 c 0.37333,-0.09333 0.81667,-0.14 1.33,-0.14 l 3.08,-0.14 2.31,0 c 0.88667,0 1.75,0.02333 2.59,0.07 l 1.96,0 c 0.46667,0.04667 1.1433,0.07 2.03,0.07 l 2.66,0 c 0.14,0 0.28,0.02333 0.42,0.07 0.14,0.04667 0.25667,0.09333 0.35,0.14 0.18667,0.09333 0.42,0.14 0.7,0.14 l 0.63,0 c 0.32667,0.23333 0.49,0.46667 0.49,0.7 l 4.97,18.48 c 1.54,5.9267 2.7533,10.943 3.64,15.05 0,0.23333 0.07,0.67667 0.21,1.33 0.18667,0.93333 0.28,1.68 0.28,2.24 0,0.32667 -0.0467,0.77 -0.14,1.33 -0.23333,0.46667 -0.56,0.7 -0.98,0.7 l -0.77,0 c -0.60667,0 -1.0733,-0.0233 -1.4,-0.07 l -1.54,0 -1.47,0 -1.19,0 c -0.32667,0 -0.51333,-0.02333 -0.56,-0.07 l -3.85,0 -0.07,-0.14 c -0.0933,-0.09333 -0.23333,-0.14 -0.42,-0.14 l -0.21,0.14 c 0,0.09333 -0.0467,0.14 -0.14,0.14 l -0.21,0 -0.49,0 c -0.23333,-0.09333 -0.65333,-0.14 -1.26,-0.14 -1.12,-0.09333 -2.0533,-0.14 -2.8,-0.14 -0.51333,-1.0733 -1.12,-3.43 -1.82,-7.07 -0.98,0.14 -2.1,0.21 -3.36,0.21 l -1.82,0 -1.75,0 c -0.18667,0.7 -0.30333,1.2833 -0.35,1.75 -0.0467,0.23333 -0.23333,1.0267 -0.56,2.38 -0.32667,1.3533 -0.63,2.2633 -0.91,2.73 l -0.42,0.14 c -0.14,0.04667 -0.25667,0.09333 -0.35,0.14 l -0.14,0 -0.14,0 c -0.28,0 -0.46667,-0.04667 -0.56,-0.14 -0.18667,-0.09333 -0.30333,-0.14 -0.35,-0.14 l -2.66,0.14 -1.96,0 c -0.23333,0.04667 -0.42,0.09333 -0.56,0.14 l -0.28,0 -5.6,0 -0.56,0 c -0.42,0.04667 -1.2833,0.07 -2.59,0.07 l -1.68,0 c -0.28,0.04667 -0.72333,0.07 -1.33,0.07 z"
       inkscape:connector-curvature="0"
       style="fill:#0050a0;fill-opacity:0.58823529;stroke:none" />
    <path
       id="path4709"
       d="m 257.2825,96.54 -1.12,0 -1.05,0 -0.56,0 -2.73,-0.77 -0.14,-0.42 q -0.07,0 -0.07,-0.7 0,-0.91 -0.07,-1.47 l -0.07,-2.66 q -0.07,-0.84 -0.07,-2.66 0,-1.75 -0.07,-2.59 l 0,-2.1 q -0.42,-4.41 -0.42,-9.1 l 0,-0.56 0,-1.05 q 0,-0.84 0.07,-1.19 l 0,-0.56 0,-0.49 q -0.07,-0.21 -0.07,-0.7 l 0,-0.77 0,-0.42 0,-0.7 0,-1.12 q 0,-0.84 0.07,-1.19 l 0,-0.7 0.07,-0.35 0,-0.91 q 0.07,-0.7 0.07,-1.89 0,-0.91 -0.07,-1.61 l -0.07,-1.61 -0.07,-0.28 q -0.21,-0.14 0,-0.21 0.28,-1.12 1.75,-1.61 0.7,-0.28 2.31,-0.28 1.19,0 6.23,-0.21 2.52,-0.14 3.15,-0.14 1.05,-0.07 2.52,-0.07 0.7,0.07 0.98,0.28 0.28,0.14 0.49,0.56 0.28,0.42 0.42,0.63 l 1.4,2.03 q -0.07,-0.07 1.75,2.52 1.68,2.73 4.06,6.16 0.35,0.56 0.84,1.26 0.49,0.7 1.05,1.61 l 0,-2.45 q 0.07,-0.98 0.07,-2.8 0,-2.38 0.14,-5.32 0,-0.56 0.07,-0.98 0.07,-0.49 0.07,-0.77 0,-0.7 0.07,-0.7 0.28,-0.42 0.98,-0.91 0.84,-0.56 1.75,-0.49 l 3.5,0 0.7,0 q 1.05,0 1.75,0.07 l 2.1,0 q 0.7,0.07 2.1,0.07 l 1.54,0 0.7,0 q 1.4,0 2.1,0.49 0.42,0.28 0.56,0.77 0.14,0.42 0.14,1.33 0,0.91 -0.07,1.54 -0.07,0.7 -0.07,1.68 l 0,0.49 q 0.07,0.21 0.07,0.63 l 0,1.82 -0.07,8.05 0,7.91 0,1.89 q 0,7.56 -0.14,9.59 l -0.21,2.31 q -0.35,1.61 -0.98,1.68 -0.14,0 -0.42,0.07 -0.21,0.07 -0.49,0.07 -2.52,0 -3.71,-0.14 l -3.64,0 -3.64,0 -0.91,0 q -0.21,0.07 -0.56,0.07 -0.84,0 -1.75,-0.35 -0.56,-0.14 -1.19,-0.77 l -6.16,-8.68 q -0.35,-0.49 -1.33,-1.61 l -0.91,-0.84 q -0.35,-0.35 -0.56,-0.35 -0.21,0 -0.35,0.21 -0.14,0.14 -0.14,0.28 l 0,1.19 q -0.07,0.56 -0.07,1.75 l 0,2.03 q -0.07,0.77 -0.07,2.1 l 0,1.68 0,1.05 q -0.07,0.14 -0.07,0.42 0,0.07 -0.21,1.12 -0.14,0.28 -0.21,0.35 -0.07,0.07 -0.49,0.07 -0.14,-0.07 -0.28,-0.07 -0.07,0 -0.14,0 -5.53,0.49 -9.17,0.49 l -0.98,0 z"
       inkscape:connector-curvature="0"
       style="fill:#0050a0;fill-opacity:0.58823529;stroke:none" />
    <path
       id="path4711"
       d="m 307.0325,96.045 q -0.14,0 -0.21,-0.28 -0.49,-0.63 -0.7,-1.54 -0.21,-0.35 -0.35,-0.91 -0.63,-1.26 -0.91,-3.5 -0.28,-3.22 -0.28,-5.11 -0.07,-0.84 -0.07,-2.31 l 0,-1.68 q 0,-2.1 -0.07,-3.29 -0.07,-1.26 -0.07,-4.97 0,-9.94 0.42,-15.33 0,-0.84 2.38,-1.26 l 2.1,0 1.75,0 q 3.99,0 5.95,0.14 2.94,0.21 5.95,0.21 0.7,0 1.05,-0.07 l 1.05,0 0.35,0.28 q 2.31,-0.49 4.76,-0.63 2.45,-0.14 5.95,-0.14 0.14,0 0.35,0.21 l 2.24,0 q 0.56,0 0.84,0.63 0.35,0.63 0.56,1.82 0.28,0.91 0.42,2.24 0.28,1.75 0.49,2.31 0,1.96 -0.7,1.96 -0.07,0 -0.21,-0.21 l -0.28,-0.07 q -0.35,-0.07 -0.77,0.07 -0.42,0.21 -0.91,0.21 -0.42,0 -0.7,-0.21 -0.14,-0.07 -0.63,-0.07 -0.63,0 -1.47,0.21 -0.28,0.07 -1.12,0.21 -0.77,0.14 -1.82,0.14 -3.01,0 -4.34,0.14 -0.77,0.07 -1.47,0.42 l 0,-0.14 q -0.28,0 -0.49,0.7 -0.49,1.19 -0.63,3.29 -0.07,0.63 -0.07,1.4 0,0.77 0.21,1.05 0.28,0.28 0.84,0.28 0.42,0 0.7,-0.28 0.14,0 0.35,0.07 0.21,0.07 0.35,0.21 l 5.95,0 q 0.07,-0.14 0.21,-0.21 0.14,-0.07 0.28,-0.07 0.7,0 1.05,0.21 0.42,0.21 1.68,0.42 0.7,0 0.98,0.42 0.35,0.49 0.35,0.91 l 1.47,4.62 q 0.21,1.12 -2.1,1.47 -1.33,0.28 -5.11,0.28 l -3.01,0 -2.1,0 q -0.98,0 -1.47,0.14 -0.49,0.07 -0.63,0.49 -0.28,0.35 -0.28,1.12 l 0,0.28 q 0,0.35 0.07,0.49 l -0.07,1.54 q -0.07,0.49 -0.07,1.47 l 0,0.7 0,0.63 0,0.42 q 3.15,0 6.44,-0.21 3.22,-0.21 6.37,-0.21 0.21,0 0.35,0.35 0.14,0.28 0.14,0.7 0.14,0.42 0.14,0.91 0.14,1.05 0.42,1.96 l 0.49,2.03 0,1.4 0,0.21 0,0.56 -0.56,0.49 -0.49,0 -0.21,0 q -0.77,0 -0.98,-0.07 -0.21,-0.14 -0.49,-0.14 -0.14,0.07 -0.42,0.21 -0.28,0.14 -0.49,0.28 l 0,-0.35 -0.84,0.07 -1.05,0 q -0.28,0 -0.42,-0.14 l -0.56,-0.07 q -2.59,0 -3.64,0.49 l -22.19,0 z"
       inkscape:connector-curvature="0"
       style="fill:#0050a0;fill-opacity:0.58823529;stroke:none" />
    <path
       id="path4713"
       d="m 349.3625,96.4 c -0.88667,0 -1.2367,-0.79333 -1.05,-2.38 0,-0.56 0.11667,-1.19 0.35,-1.89 0,-0.32667 0.0233,-0.58333 0.07,-0.77 0.0467,-0.23333 0.07,-0.42 0.07,-0.56 1.0733,-5.0867 2.2633,-10.103 3.57,-15.05 l 4.76,-18.62 c 0,-0.09333 0.07,-0.21 0.21,-0.35 0.14,-0.14 0.28,-0.25667 0.42,-0.35 l 0.49,0 c 0.56,0 1.0033,-0.07 1.33,-0.21 0.28,-0.04667 0.77,-0.07 1.47,-0.07 1.12,0 1.96,0.02333 2.52,0.07 0.84,0.14 1.7033,0.21 2.59,0.21 l 3.64,-0.07 c 0.37333,-0.09333 0.81667,-0.14 1.33,-0.14 l 3.08,-0.14 2.31,0 c 0.88667,0 1.75,0.02333 2.59,0.07 l 1.96,0 c 0.46667,0.04667 1.1433,0.07 2.03,0.07 l 2.66,0 c 0.14,0 0.28,0.02333 0.42,0.07 0.14,0.04667 0.25667,0.09333 0.35,0.14 0.18667,0.09333 0.42,0.14 0.7,0.14 l 0.63,0 c 0.32667,0.23333 0.49,0.46667 0.49,0.7 l 4.97,18.48 c 1.54,5.9267 2.7533,10.943 3.64,15.05 0,0.23333 0.07,0.67667 0.21,1.33 0.18667,0.93333 0.28,1.68 0.28,2.24 0,0.32667 -0.0467,0.77 -0.14,1.33 -0.23333,0.46667 -0.56,0.7 -0.98,0.7 l -0.77,0 c -0.60667,0 -1.0733,-0.0233 -1.4,-0.07 l -1.54,0 -1.47,0 -1.19,0 c -0.32667,0 -0.51333,-0.02333 -0.56,-0.07 l -3.85,0 -0.07,-0.14 c -0.0933,-0.09333 -0.23333,-0.14 -0.42,-0.14 l -0.21,0.14 c 0,0.09333 -0.0467,0.14 -0.14,0.14 l -0.21,0 -0.49,0 c -0.23333,-0.09333 -0.65333,-0.14 -1.26,-0.14 -1.12,-0.09333 -2.0533,-0.14 -2.8,-0.14 -0.51333,-1.0733 -1.12,-3.43 -1.82,-7.07 -0.98,0.14 -2.1,0.21 -3.36,0.21 l -1.82,0 -1.75,0 c -0.18667,0.7 -0.30333,1.2833 -0.35,1.75 -0.0467,0.23333 -0.23333,1.0267 -0.56,2.38 -0.32667,1.3533 -0.63,2.2633 -0.91,2.73 l -0.42,0.14 c -0.14,0.04667 -0.25667,0.09333 -0.35,0.14 l -0.14,0 -0.14,0 c -0.28,0 -0.46667,-0.04667 -0.56,-0.14 -0.18667,-0.09333 -0.30333,-0.14 -0.35,-0.14 l -2.66,0.14 -1.96,0 c -0.23333,0.04667 -0.42,0.09333 -0.56,0.14 l -0.28,0 -5.6,0 -0.56,0 c -0.42,0.04667 -1.2833,0.07 -2.59,0.07 l -1.68,0 c -0.28,0.04667 -0.72333,0.07 -1.33,0.07 z"
       inkscape:connector-curvature="0"
       style="fill:#0050a0;fill-opacity:0.58823529;stroke:none" />
  </g>
  <g
     id="jelly-text-3">
    <path
       d="m 481.1295,85.00667 c -0.60667,0 -1.0267,-0.46667 -1.26,-1.4 -0.0467,-0.14 -0.07,-0.37333 -0.07,-0.7 0,-0.46667 0.0933,-1.1667 0.28,-2.1 0.0933,-0.60667 0.16333,-1.0733 0.21,-1.4 l 0.21,-0.84 c 1.4,-6.58 2.7767,-12.367 4.13,-17.36 l 4.9,-22.12 c 0,-0.09333 0.07,-0.23333 0.21,-0.42 0.14,-0.18667 0.30333,-0.30333 0.49,-0.35 l 0.35,0 c 0,0.04667 0.07,0.07 0.21,0.07 0.56,0 1.19,-0.07 1.89,-0.21 0.7,-0.14 1.33,-0.21 1.89,-0.21 1.0267,0 1.9833,0.07 2.87,0.21 0.42,0 0.88667,0.02333 1.4,0.07 0.51333,0.04667 1.05,0.07 1.61,0.07 0.18667,0 0.39667,-0.04667 0.63,-0.14 l 1.26,0 1.61,0 1.68,-0.07 c 0.32667,-0.04667 0.72333,-0.07 1.19,-0.07 0.37333,0 0.56,-0.02333 0.56,-0.07 l 1.12,0 2.38,0 2.94,0 c 2.6133,0 4.34,0.04667 5.18,0.14 0.14,0 0.32667,0.02333 0.56,0.07 0.28,0 0.44333,0.04667 0.49,0.14 0.32667,0 0.65333,-0.02333 0.98,-0.07 0.32667,-0.04667 0.63,-0.07 0.91,-0.07 0.65333,-0.14 1.2833,-0.21 1.89,-0.21 0.28,0 0.56,0.07 0.84,0.21 0.28,0.14 0.58333,0.21 0.91,0.21 l 0.35,-0.07 0.21,0 c 0.14,0.09333 0.28,0.23333 0.42,0.42 0.18667,0.14 0.28,0.25667 0.28,0.35 l 4.9,22.12 c 1.4933,5.46 2.8467,11.247 4.06,17.36 0,0.28 0.0933,0.58333 0.28,0.91 0.0467,0.32667 0.11667,0.77 0.21,1.33 0.0933,0.56 0.14,1.0267 0.14,1.4 0.0467,0.18667 0.07,0.44333 0.07,0.77 0,0.65333 -0.14,1.19 -0.42,1.61 -0.18667,0.28 -0.46667,0.42 -0.84,0.42 l -0.91,0 c -0.7,0 -1.2367,-0.0233 -1.61,-0.07 l -1.82,0 -1.75,0 -1.4,0 c -0.37333,0 -0.56,-0.0233 -0.56,-0.07 l -4.41,0 0,-0.14 c -0.18667,-0.0933 -0.42,-0.14 -0.7,-0.14 l -0.07,0.07 -0.07,0.07 c 0,0.0933 -0.0467,0.14 -0.14,0.14 l -0.21,0 -0.56,0 c -0.23333,-0.0933 -0.7,-0.14 -1.4,-0.14 -1.4,-0.0933 -2.4967,-0.14 -3.29,-0.14 -0.28,-0.42 -0.58333,-1.26 -0.91,-2.52 -0.28,-1.26 -0.58333,-2.66 -0.91,-4.2 -0.0933,-0.74667 -0.18667,-1.26 -0.28,-1.54 -0.98,0.18667 -2.2633,0.28 -3.85,0.28 l -2.17,0 -2.03,0 -0.49,2.24 c -0.60667,3.08 -1.0967,4.9933 -1.47,5.74 -0.18667,0 -0.42,0.0467 -0.7,0.14 l -0.28,0.14 -0.07,0 -0.28,0 c -0.28,0 -0.49,-0.0467 -0.63,-0.14 -0.0933,-0.0933 -0.21,-0.14 -0.35,-0.14 l -3.15,0.14 -1.12,0 -1.05,0 c -0.18667,0.0933 -0.42,0.14 -0.7,0.14 l -0.28,0 -6.44,0 -0.63,0 c -0.51333,0.0467 -1.5633,0.07 -3.15,0.07 l -1.82,0 c -0.37333,0.0467 -0.91,0.07 -1.61,0.07 z"
       inkscape:connector-curvature="0"
       style="fill:#0050a0;fill-opacity:0.58823529;stroke:none"
       id="path4280" />
    <path
       d="m 558.4105,85.98667 q -2.8,0.14 -4.76,-0.14 -1.61,-0.35 -2.94,-0.98 -1.33,-0.63 -2.45,-1.96 -2.24,-2.8 -3.01,-7.35 -0.56,-3.71 -0.42,-8.12 l 0,-3.08 q 0,-0.63 0.07,-0.98 l 0,-1.4 0,-1.26 0,-0.7 0.21,-0.49 q 0,-0.07 0,-0.21 0.07,-0.14 0.07,-0.49 0.21,-2.52 0.21,-4.06 l 0.14,-2.59 q 0.07,-1.75 0.07,-4.06 0,-0.91 -0.07,-1.26 -0.14,-0.84 -0.14,-1.33 0,-1.05 2.17,-1.05 l 0.98,0 q 0.84,0 1.12,-0.14 l 8.54,0.14 q 0,0 0.07,0.14 0.14,0.07 0.21,0.07 l 0.56,-0.21 q 3.64,0 4.69,0.7 0.7,0.49 0.98,1.47 0.35,0.98 0.35,2.66 0,1.12 0.14,3.08 0.14,0.98 0.14,3.08 l 0,0.7 q -0.14,2.03 -0.28,6.65 l -0.07,3.36 0,3.01 q -0.14,0.84 -0.14,2.24 l 0,1.05 0,1.05 q -0.07,0.98 0.28,2.73 0.35,0.56 0.63,0.56 0.42,0 3.15,-1.05 l 1.68,-0.84 q 0.7,-0.28 0.7,-0.56 l 0,-23.03 q -0.21,-1.47 -0.21,-2.31 -0.07,-0.35 -0.07,-1.05 l 0,-1.05 0,-0.7 q 0,-0.84 0.35,-1.19 0.14,-0.21 0.7,-0.21 0.14,0 0.28,0.14 0.14,0.07 0.14,0.21 l 0,0.14 q 0.7,-0.28 3.01,-0.49 1.89,-0.21 4.2,-0.21 l 1.75,0 1.12,0 1.33,0 7.35,0.21 q 0.14,0 0.21,0.07 0.14,0.07 0.14,0.14 0.07,0 0.07,0.07 0,0.07 0,0.07 l 0,0.35 q -0.07,0 -0.07,0.21 l 0.35,-0.07 q 0.07,-0.14 0.21,-0.14 0.21,0 0.21,0.35 0,12.25 -0.14,20.37 -0.07,8.05 -0.56,16.31 0,0.35 -0.56,1.05 -0.28,0.35 -0.49,0.56 -0.07,0.14 -0.21,0.21 -0.14,0.07 -0.21,0.14 -0.07,-0.07 -0.49,-0.14 -0.42,-0.14 -0.7,-0.14 l -0.21,0.14 q -0.14,0.14 -0.28,0.14 -2.8,0.49 -8.82,0.49 l -3.08,0 q -1.75,0 -3.08,-0.28 -0.49,-0.35 -1.05,-1.75 -0.07,-0.49 -0.28,-0.84 -0.14,-0.35 -0.35,-0.35 -0.56,0 -1.75,0.77 -0.14,0.14 -0.42,0.35 -0.21,0.14 -0.42,0.35 -0.56,0.42 -0.77,0.7 -1.89,1.05 -4.48,1.54 -1.75,0.42 -3.22,0.42 -1.61,0 -2.38,0.07 z"
       inkscape:connector-curvature="0"
       style="fill:#0050a0;fill-opacity:0.58823529;stroke:none"
       id="path4282" />
    <path
       d="m 632.7305,85.70667 c -2.0533,-2.0067 -3.8033,-4.0367 -5.25,-6.09 -1.0267,-1.3533 -2.6133,-3.7567 -4.76,-7.21 l -1.19,-1.89 c -0.0467,-0.04667 -0.0933,-0.07 -0.14,-0.07 l 0,-0.07 -0.35,0 -0.28,0.14 c -0.0467,0.60667 -0.07,2.24 -0.07,4.9 0,1.7267 -0.0933,3.7567 -0.28,6.09 l -0.07,2.1 c -0.18667,0.51333 -0.30333,0.77 -0.35,0.77 l -0.49,0 -0.21,0 c -5.1333,0.37333 -8.8667,0.56 -11.2,0.56 l -1.05,0 -1.33,0 c -0.51333,0 -0.88667,-0.0233 -1.12,-0.07 l -0.49,0 -2.17,-0.7 -0.14,-0.49 c -0.0933,0 -0.16333,-0.0933 -0.21,-0.28 l 0,-0.42 c -0.14,-1.96 -0.25667,-3.3833 -0.35,-4.27 -0.18667,-2.52 -0.30333,-4.3633 -0.35,-5.53 -0.0933,-1.12 -0.14,-1.8433 -0.14,-2.17 l -0.35,-3.85 -0.07,-2.1 c -0.0467,-0.42 -0.07,-1.0033 -0.07,-1.75 l 0,-0.63 c 0.0933,-0.23333 0.14,-0.60667 0.14,-1.12 l 0,-1.19 c 0.0467,-0.18667 0.07,-0.39667 0.07,-0.63 l -0.07,-0.56 0,-0.7 c 0,-0.32667 -0.0467,-0.58333 -0.14,-0.77 l 0,-0.42 0.07,-1.75 c 0.0467,-0.32667 0.07,-0.81667 0.07,-1.47 0.0933,-1.4 0.14,-2.73 0.14,-3.99 l 0,-0.7 c -0.0467,-0.14 -0.07,-0.44333 -0.07,-0.91 l 0,-0.98 0,-0.7 c -0.14,-0.14 -0.21,-0.28 -0.21,-0.42 0,-0.65333 0.58333,-1.12 1.75,-1.4 0.60667,-0.18667 1.47,-0.28 2.59,-0.28 10.92,0 19.087,0.37333 24.5,1.12 5.32,0.74667 9.0533,2.03 11.2,3.85 0.93333,0.88667 1.5867,1.9367 1.96,3.15 0.42,1.1667 0.63,2.5667 0.63,4.2 0,2.6133 -0.74667,4.8067 -2.24,6.58 -0.98,0.98 -2.1233,1.7967 -3.43,2.45 0.28,0.7 1.0967,2.1 2.45,4.2 0.28,0.32667 0.53667,0.67667 0.77,1.05 0.28,0.37333 0.60667,0.77 0.98,1.19 0.88667,1.2133 1.9133,2.5433 3.08,3.99 0.0467,0.18667 0.23333,0.58333 0.56,1.19 0.23333,0.09333 0.35,0.21 0.35,0.35 0.0467,0.09333 0.0233,0.23333 -0.07,0.42 -0.37333,0.56 -1.47,1.3767 -3.29,2.45 -0.23333,0.23333 -0.51333,0.46667 -0.84,0.7 -0.93333,0.74667 -2.2167,1.5167 -3.85,2.31 -1.4933,0.79333 -2.7767,1.3533 -3.85,1.68 -0.42,0.23333 -0.67667,0.28 -0.77,0.14 z"
       inkscape:connector-curvature="0"
       style="fill:#0050a0;fill-opacity:0.58823529;stroke:none"
       id="path4284" />
    <path
       id="path4286"
       d="m 655.5505,84.65667 q -0.14,0 -0.21,-0.28 -0.49,-0.63 -0.7,-1.54 -0.21,-0.35 -0.35,-0.91 -0.63,-1.26 -0.91,-3.5 -0.28,-3.22 -0.28,-5.11 -0.07,-0.84 -0.07,-2.31 l 0,-1.68 q 0,-2.1 -0.07,-3.29 -0.07,-1.26 -0.07,-4.97 0,-9.94 0.42,-15.33 0,-0.84 2.38,-1.26 l 2.1,0 1.75,0 q 3.99,0 5.95,0.14 2.94,0.21 5.95,0.21 0.7,0 1.05,-0.07 l 1.05,0 0.35,0.28 q 2.31,-0.49 4.76,-0.63 2.45,-0.14 5.95,-0.14 0.14,0 0.35,0.21 l 2.24,0 q 0.56,0 0.84,0.63 0.35,0.63 0.56,1.82 0.28,0.91 0.42,2.24 0.28,1.75 0.49,2.31 0,1.96 -0.7,1.96 -0.07,0 -0.21,-0.21 l -0.28,-0.07 q -0.35,-0.07 -0.77,0.07 -0.42,0.21 -0.91,0.21 -0.42,0 -0.7,-0.21 -0.14,-0.07 -0.63,-0.07 -0.63,0 -1.47,0.21 -0.28,0.07 -1.12,0.21 -0.77,0.14 -1.82,0.14 -3.01,0 -4.34,0.14 -0.77,0.07 -1.47,0.42 l 0,-0.14 q -0.28,0 -0.49,0.7 -0.49,1.19 -0.63,3.29 -0.07,0.63 -0.07,1.4 0,0.77 0.21,1.05 0.28,0.28 0.84,0.28 0.42,0 0.7,-0.28 0.14,0 0.35,0.07 0.21,0.07 0.35,0.21 l 5.95,0 q 0.07,-0.14 0.21,-0.21 0.14,-0.07 0.28,-0.07 0.7,0 1.05,0.21 0.42,0.21 1.68,0.42 0.7,0 0.98,0.42 0.35,0.49 0.35,0.91 l 1.47,4.62 q 0.21,1.12 -2.1,1.47 -1.33,0.28 -5.11,0.28 l -3.01,0 -2.1,0 q -0.98,0 -1.47,0.14 -0.49,0.07 -0.63,0.49 -0.28,0.35 -0.28,1.12 l 0,0.28 q 0,0.35 0.07,0.49 l -0.07,1.54 q -0.07,0.49 -0.07,1.47 l 0,0.7 0,0.63 0,0.42 q 3.15,0 6.44,-0.21 3.22,-0.21 6.37,-0.21 0.21,0 0.35,0.35 0.14,0.28 0.14,0.7 0.14,0.42 0.14,0.91 0.14,1.05 0.42,1.96 l 0.49,2.03 0,1.4 0,0.21 0,0.56 -0.56,0.49 -0.49,0 -0.21,0 q -0.77,0 -0.98,-0.07 -0.21,-0.14 -0.49,-0.14 -0.14,0.07 -0.42,0.21 -0.28,0.14 -0.49,0.28 l 0,-0.35 -0.84,0.07 -1.05,0 q -0.28,0 -0.42,-0.14 l -0.56,-0.07 q -2.59,0 -3.64,0.49 l -22.19,0 z"
       inkscape:connector-curvature="0"
       style="fill:#0050a0;fill-opacity:0.58823529;stroke:none" />
    <path
       id="path4288"
       d="m 716.5105,85.28667 -0.91,-0.14 -1.12,0 q -1.05,-0.14 -3.64,-0.28 -0.56,0 -1.05,-0.07 -0.49,-0.07 -0.91,-0.07 l -1.54,0 -0.7,-0.07 q -2.24,0 -3.29,0.07 -1.05,0.14 -3.29,0.14 l -1.4,0 -1.26,0.07 -0.21,-0.28 0,-0.77 0,-1.75 0,-1.82 0,-1.19 0,-4.76 q 0,-1.68 -0.14,-2.45 l 0,-1.68 0.28,-3.01 q 0.21,-2.8 0.21,-8.05 0.14,-8.47 1.05,-12.25 0.49,-2.03 1.61,-2.59 l 8.19,0.07 q 1.05,0.07 3.01,0.07 l 3.36,0 q 0.35,0.07 1.26,0.14 0.98,0.07 1.47,0.35 0.42,0.35 0.56,0.98 0.21,0.56 0.21,1.68 l -0.07,0.56 0,0.84 q -0.21,0.49 -0.21,0.98 -0.14,0.56 -0.07,1.12 l 0,1.05 q 0.07,0.35 0.07,0.98 l 0.07,0.56 0,1.61 0.07,2.24 q 0.07,0.7 0.07,1.96 0.14,0.98 0.35,1.33 0,0.49 -0.07,1.05 -0.07,0.56 -0.07,1.12 -0.07,0.84 -0.07,2.52 0,1.61 0.07,2.38 0,1.12 0.35,2.31 0.7,0.28 1.61,0.28 2.31,0 4.76,-0.07 2.52,-0.07 4.48,-0.42 0.42,0.07 0.77,0.56 0.42,0.49 0.42,0.84 l -0.49,12.04 q -0.14,0.42 -0.56,0.56 -1.19,0.56 -3.29,0.7 -2.8,0.42 -3.71,0.42 l -1.19,0 q -1.4,0 -2.1,0.07 -1.4,0.14 -1.96,0.14 l -0.98,-0.07 z"
       inkscape:connector-curvature="0"
       style="fill:#0050a0;fill-opacity:0.58823529;stroke:none" />
    <path
       id="path4290"
       d="m 739.3605,85.84667 q -1.26,0 -1.61,-2.52 -0.21,-1.05 -0.21,-1.89 0,-1.12 -0.07,-1.4 -0.07,-2.03 -0.35,-6.44 l -0.21,-2.66 q -0.42,-6.16 -0.42,-9.1 l 0,-17.01 q 0,-0.56 1.26,-0.84 0.7,-0.21 1.96,-0.21 0.84,0 1.82,0.14 0.98,0.07 1.47,0.07 1.05,0.14 3.29,0.14 l 0.28,-0.21 3.08,0 q 0.21,0.21 0.49,0.21 l 0.28,0 q 0.07,-0.07 0.35,-0.07 0.14,-0.07 0.42,-0.07 0.07,-0.07 0.14,-0.07 0.07,0 0.07,0 0.21,0 0.49,0.14 0.28,0.07 0.42,0.07 l 5.18,0 0.21,12.04 q 0,0.07 -0.14,0.49 -0.07,0.35 -0.14,0.98 -0.21,2.52 -0.21,3.99 l 0,13.65 -0.21,2.66 q -0.21,1.75 -0.14,2.87 0,1.47 -0.14,2.38 -0.07,0.84 -0.42,1.33 -0.42,0.49 -1.33,0.49 l -0.07,-0.07 -0.21,-0.07 q -0.14,0 -0.14,0.07 l -0.35,0 q -0.42,0.14 -0.49,0.21 -0.35,0 -1.61,-0.21 l -0.98,-0.07 q -0.35,0 -0.42,0.28 l -5.25,0 -0.98,0 -1.82,0.35 -1.68,0.21 -1.61,0.14 z"
       inkscape:connector-curvature="0"
       style="fill:#0050a0;fill-opacity:0.58823529;stroke:none" />
    <path
       id="path4292"
       d="m 766.1105,85.00667 c -0.88667,0 -1.2367,-0.79333 -1.05,-2.38 0,-0.56 0.11667,-1.19 0.35,-1.89 0,-0.32667 0.0233,-0.58333 0.07,-0.77 0.0467,-0.23333 0.07,-0.42 0.07,-0.56 1.0733,-5.0867 2.2633,-10.103 3.57,-15.05 l 4.76,-18.62 c 0,-0.09333 0.07,-0.21 0.21,-0.35 0.14,-0.14 0.28,-0.25667 0.42,-0.35 l 0.49,0 c 0.56,0 1.0033,-0.07 1.33,-0.21 0.28,-0.04667 0.77,-0.07 1.47,-0.07 1.12,0 1.96,0.02333 2.52,0.07 0.84,0.14 1.7033,0.21 2.59,0.21 l 3.64,-0.07 c 0.37333,-0.09333 0.81667,-0.14 1.33,-0.14 l 3.08,-0.14 2.31,0 c 0.88667,0 1.75,0.02333 2.59,0.07 l 1.96,0 c 0.46667,0.04667 1.1433,0.07 2.03,0.07 l 2.66,0 c 0.14,0 0.28,0.02333 0.42,0.07 0.14,0.04667 0.25667,0.09333 0.35,0.14 0.18667,0.09333 0.42,0.14 0.7,0.14 l 0.63,0 c 0.32667,0.23333 0.49,0.46667 0.49,0.7 l 4.97,18.48 c 1.54,5.9267 2.7533,10.943 3.64,15.05 0,0.23333 0.07,0.67667 0.21,1.33 0.18667,0.93334 0.28,1.68 0.28,2.24 0,0.32667 -0.0467,0.77 -0.14,1.33 -0.23333,0.46667 -0.56,0.7 -0.98,0.7 l -0.77,0 c -0.60667,0 -1.0733,-0.0233 -1.4,-0.07 l -1.54,0 -1.47,0 -1.19,0 c -0.32667,0 -0.51333,-0.0233 -0.56,-0.07 l -3.85,0 -0.07,-0.14 c -0.0933,-0.0933 -0.23333,-0.14 -0.42,-0.14 l -0.21,0.14 c 0,0.0933 -0.0467,0.14 -0.14,0.14 l -0.21,0 -0.49,0 c -0.23333,-0.0933 -0.65333,-0.14 -1.26,-0.14 -1.12,-0.0933 -2.0533,-0.14 -2.8,-0.14 -0.51333,-1.0733 -1.12,-3.43 -1.82,-7.07 -0.98,0.14 -2.1,0.21 -3.36,0.21 l -1.82,0 -1.75,0 c -0.18667,0.7 -0.30333,1.2833 -0.35,1.75 -0.0467,0.23333 -0.23333,1.0267 -0.56,2.38 -0.32667,1.3533 -0.63,2.2633 -0.91,2.73 l -0.42,0.14 c -0.14,0.0467 -0.25667,0.0933 -0.35,0.14 l -0.14,0 -0.14,0 c -0.28,0 -0.46667,-0.0467 -0.56,-0.14 -0.18667,-0.0933 -0.30333,-0.14 -0.35,-0.14 l -2.66,0.14 -1.96,0 c -0.23333,0.0467 -0.42,0.0933 -0.56,0.14 l -0.28,0 -5.6,0 -0.56,0 c -0.42,0.0467 -1.2833,0.07 -2.59,0.07 l -1.68,0 c -0.28,0.0467 -0.72333,0.07 -1.33,0.07 z"
       inkscape:connector-curvature="0"
       style="fill:#0050a0;fill-opacity:0.58823529;stroke:none" />
  </g>
  <g
     id="jelly-text-4">
    <path
       id="path4817"
       d="m 825.24331,98 q -4.62,0 -7.7,-0.42 -3.99,-0.56 -7.21,-2.03 -0.42,-0.21 -1.26,-0.63 -0.77,-0.49 -1.33,-0.91 -2.31,-1.96 -3.78,-4.41 -1.19,-1.26 -2.17,-3.5 -1.89,-4.9 -1.89,-11.69 0,-7.98 3.29,-14 2.87,-5.74 7.63,-8.96 4.83,-3.29 10.92,-3.71 l 0.84,-0.07 0.91,0 q 5.46,0 11.76,2.24 0.56,0.28 2.45,1.12 1.89,0.84 3.5,1.89 l -1.26,9.1 -4.13,-1.05 q -2.24,-0.56 -4.2,-0.56 -3.92,0 -5.88,2.94 -2.1,3.08 -2.1,10.01 0,2.24 0.21,3.15 0.28,4.41 1.96,6.51 1.61,1.82 3.85,1.82 2.1,0 4.69,-1.33 2.24,-1.05 4.9,-2.87 l 0.7,11.48 q -2.73,2.52 -7,4.27 -4.06,1.61 -7.7,1.61 z"
       inkscape:connector-curvature="0"
       style="fill:#0050a0;fill-opacity:0.58823529;stroke:none" />
    <path
       id="path4819"
       d="m 858.90031,96.54 q -2.94,0 -4.97,-0.14 -1.96,-0.14 -3.71,-0.63 -0.28,0 -0.42,-0.28 -0.14,-0.35 -0.21,-0.49 -0.07,-0.35 -0.07,-0.84 -0.42,-7.07 -0.77,-10.99 -0.35,-4.62 -0.35,-11.55 l 0,-1.75 0.07,-2.66 0.14,-3.15 0.07,-1.75 q 0.07,-0.49 0.07,-1.54 l 0,-2.66 q 0,-1.33 0.07,-1.75 0,-0.21 0.28,-0.21 0.63,0 1.12,-0.28 0.21,0 0.63,0 0.49,-0.07 0.84,0 l 2.31,0 3.71,0 2.03,0 3.92,0 q 1.26,0 1.89,0.07 l 2.1,0.07 q 0.77,0 1.12,0.14 0.42,0.07 0.63,0.42 0.21,0.21 0.28,0.84 0.07,0.63 0.07,1.4 l 0,0.56 0,0.98 q 0,0.7 0.07,0.98 l 0,0.7 0,0.49 q 0.07,0.28 0.07,0.7 l -0.07,2.1 q -0.07,0.7 -0.07,2.03 0,0.77 0.14,1.05 0.21,0.35 0.63,0.35 0.14,0 0.7,-0.14 0.21,0 0.56,-0.07 0.35,-0.07 0.77,-0.07 l 0.7,0 q 0.35,0.14 1.26,0.14 0.35,0 0.63,-0.07 0.35,-0.07 0.63,-0.07 0.63,0 0.63,-0.14 l 0,-2.87 0,-1.05 q 0,-1.05 0.07,-1.68 l 0,-1.96 q 0.07,-0.7 0.07,-1.96 0,-1.19 0.07,-1.61 l 0,-1.05 0.21,0 0.35,0 q 0.42,0 0.42,-0.28 l 3.36,0 q 2.1,0 3.15,0.14 1.82,0.14 2.94,0.14 l 4.41,-0.14 q 1.05,-0.14 2.59,-0.14 l 1.82,0 q 1.4,0 1.89,0.28 0.49,0.28 0.49,1.4 l 0,5.53 q 0,1.4 -0.07,2.24 l -0.07,1.68 q 0,1.12 -0.14,3.36 l -0.07,1.19 0.07,1.12 -0.7,22.19 q 0,0.21 -0.42,0.91 -0.42,0.56 -0.84,0.56 l -4.9,0 q -2.73,0 -5.39,-0.21 -1.75,-0.07 -5.25,-0.07 l -1.19,0 q -0.98,0 -1.33,-0.7 -0.28,-0.91 -0.35,-2.38 l -0.7,-11.55 -0.7,0 q -1.68,0 -2.45,-0.07 -0.7,-0.14 -0.7,-0.14 l -2.87,0 q -0.28,0 -0.35,0.21 -0.07,0.21 -0.07,0.49 0,0.21 0,0.35 l 0,11.62 0,1.33 q 0,0.21 -0.07,0.42 -0.07,0.14 -0.07,0.28 -0.07,0.21 -0.35,0.21 -0.07,0 -0.21,0.07 -0.14,0.07 -0.35,0.14 -2.59,0 -4.9,0.21 l -4.9,0 z"
       inkscape:connector-curvature="0"
       style="fill:#0050a0;fill-opacity:0.58823529;stroke:none" />
    <path
       id="path4821"
       d="m 938.71031,97.1 c -2.0533,-2.0067 -3.8033,-4.0367 -5.25,-6.09 -1.0267,-1.3533 -2.6133,-3.7567 -4.76,-7.21 l -1.19,-1.89 c -0.0467,-0.04667 -0.0933,-0.07 -0.14,-0.07 l 0,-0.07 -0.35,0 -0.28,0.14 c -0.0467,0.60667 -0.07,2.24 -0.07,4.9 0,1.7267 -0.0933,3.7567 -0.28,6.09 l -0.07,2.1 c -0.18667,0.51333 -0.30333,0.77 -0.35,0.77 l -0.49,0 -0.21,0 c -5.1333,0.37333 -8.8667,0.56 -11.2,0.56 l -1.05,0 -1.33,0 c -0.51333,0 -0.88667,-0.02333 -1.12,-0.07 l -0.49,0 -2.17,-0.7 -0.14,-0.49 c -0.0933,0 -0.16333,-0.09333 -0.21,-0.28 l 0,-0.42 c -0.14,-1.96 -0.25667,-3.3833 -0.35,-4.27 -0.18667,-2.52 -0.30333,-4.3633 -0.35,-5.53 -0.0933,-1.12 -0.14,-1.8433 -0.14,-2.17 l -0.35,-3.85 -0.07,-2.1 c -0.0467,-0.42 -0.07,-1.0033 -0.07,-1.75 l 0,-0.63 c 0.0933,-0.23333 0.14,-0.60667 0.14,-1.12 l 0,-1.19 c 0.0467,-0.18667 0.07,-0.39667 0.07,-0.63 l -0.07,-0.56 0,-0.7 c 0,-0.32667 -0.0467,-0.58333 -0.14,-0.77 l 0,-0.42 0.07,-1.75 c 0.0467,-0.32667 0.07,-0.81667 0.07,-1.47 0.0933,-1.4 0.14,-2.73 0.14,-3.99 l 0,-0.7 c -0.0467,-0.14 -0.07,-0.44333 -0.07,-0.91 l 0,-0.98 0,-0.7 c -0.14,-0.14 -0.21,-0.28 -0.21,-0.42 0,-0.65333 0.58333,-1.12 1.75,-1.4 0.60667,-0.18667 1.47,-0.28 2.59,-0.28 10.92,0 19.087,0.37333 24.5,1.12 5.32,0.74667 9.0533,2.03 11.2,3.85 0.93333,0.88667 1.5867,1.9367 1.96,3.15 0.42,1.1667 0.63,2.5667 0.63,4.2 0,2.6133 -0.74667,4.8067 -2.24,6.58 -0.98,0.98 -2.1233,1.7967 -3.43,2.45 0.28,0.7 1.0967,2.1 2.45,4.2 0.28,0.32667 0.53667,0.67667 0.77,1.05 0.28,0.37333 0.60667,0.77 0.98,1.19 0.88667,1.2133 1.9133,2.5433 3.08,3.99 0.0467,0.18667 0.23333,0.58333 0.56,1.19 0.23333,0.09333 0.35,0.21 0.35,0.35 0.0467,0.09333 0.0233,0.23333 -0.07,0.42 -0.37333,0.56 -1.47,1.3767 -3.29,2.45 -0.23333,0.23333 -0.51333,0.46667 -0.84,0.7 -0.93333,0.74667 -2.2167,1.5167 -3.85,2.31 -1.4933,0.79333 -2.7767,1.3533 -3.85,1.68 -0.42,0.23333 -0.67667,0.28 -0.77,0.14 z"
       inkscape:connector-curvature="0"
       style="fill:#0050a0;fill-opacity:0.58823529;stroke:none" />
    <path
       id="path4823"
       d="m 982.32031,105 q -0.42,0 -2.1,-0.56 -0.28,-0.07 -0.84,-0.35 -0.49,-0.21 -0.91,-0.21 -0.28,0 -0.98,-0.35 -0.49,-0.35 -0.91,-0.35 l -0.84,-0.21 q -0.42,0 -0.56,-0.07 -0.21,0 -0.21,-0.07 -2.24,-0.49 -4.55,-1.61 l -4.55,-1.89 q -0.49,-0.21 -0.49,-0.7 0,-0.42 0.21,-0.84 l 1.89,-3.29 q 0.7,-1.33 1.96,-3.15 0.49,-0.49 0.98,-1.75 0.42,-0.98 0.42,-1.19 -1.05,-2.03 -2.66,-4.34 -1.61,-2.8 -2.59,-3.71 -0.14,-0.35 -0.63,-1.12 -1.12,-1.96 -1.05,-1.82 l -1.19,-2.1 q -0.49,-0.7 -1.19,-2.1 -0.42,-0.7 -0.91,-1.75 -0.63,-1.05 -0.7,-1.26 -0.56,-0.63 -1.89,-3.36 -1.26,-2.8 -1.26,-3.36 0,-0.28 0.56,-0.7 0.56,-0.49 1.26,-0.98 2.24,-1.05 2.94,-1.26 0.91,-0.42 1.54,-0.7 0.7,-0.28 1.12,-0.49 1.61,-0.77 4.48,-1.89 0.56,-0.28 2.66,-1.12 0.77,-0.21 1.4,-0.21 0.42,0 0.7,0.28 0.28,0.14 0.84,1.12 l 2.45,5.32 q 2.1,4.41 2.94,5.95 0.14,0.21 0.28,0.56 0.14,0.28 0.28,0.42 0.42,0.56 0.77,0.56 0.21,0 0.35,-0.21 0.21,-0.21 0.28,-0.35 l 4.76,-12.53 q 0.28,-0.91 1.19,-1.4 0.77,-0.49 1.89,-0.35 4.55,1.47 6.72,2.38 4.26999,1.75 6.29999,3.08 0.7,0.35 0.91,0.91 0.28,0.49 0.07,0.98 -0.07,0.63 -0.35,1.05 l -0.42,0.84 -11.19999,24.29 -0.56,1.4 -6.86,13.09 q -0.49,0.84 -0.91,1.12 -0.35,0.35 -0.84,0.35 z"
       inkscape:connector-curvature="0"
       style="fill:#0050a0;fill-opacity:0.58823529;stroke:none" />
    <path
       id="path4825"
       d="m 1018.2603,97.72 -1.61,-0.28 q -2.31,-0.35 -3.85,-0.84 -0.84,-0.07 -1.47,-0.49 -0.56,-0.21 -0.7,-0.56 l -1.54,-8.68 0,-0.35 q 0,-0.49 0.07,-0.7 0.14,-0.28 0.49,-0.35 4.55,1.75 8.96,1.75 1.4,0 2.17,0.07 2.66,0 3.85,-0.7 0.63,-0.42 0.63,-1.19 0,-1.12 -0.7,-1.82 -0.7,-0.77 -2.03,-1.33 l -2.24,-0.84 q -0.98,-0.21 -2.24,-0.77 0,-0.07 -0.07,-0.07 -0.07,-0.07 -0.14,-0.21 -0.28,-0.07 -1.19,-0.7 l -0.42,-0.21 q 0.14,0 0.14,-0.07 0,-0.07 -0.21,-0.14 -0.21,-0.14 -0.84,-0.42 -0.56,-0.35 -0.98,-0.77 -0.63,-0.35 -0.63,-0.84 l 0,-0.35 q -1.75,0 -3.01,-3.64 -1.05,-3.71 -1.05,-5.25 0,-6.51 5.6,-10.01 4.55,-2.87 12.53,-3.85 5.18,-0.56 12.88,-0.56 0.98,0.35 1.54,0.42 1.26,0.07 1.68,0.84 0.21,0.35 0.35,1.4 0.21,1.12 0.42,6.51 0.14,0.14 0.14,0.42 0,0.56 -1.54,0.91 -1.68,0.21 -2.17,0.21 l -1.61,0.21 q -2.73,0.35 -3.57,0.49 -2.87,0.49 -3.99,1.75 -0.7,0.84 -0.7,1.75 0,0.49 0.14,0.77 0.14,0.28 0.7,0.63 0.63,0.35 3.64,1.75 3.22,1.4 6.44,3.64 2.73,1.89 3.92,5.04 0.63,1.33 0.63,3.5 0,1.96 -0.49,3.36 -1.82,4.62 -6.86,7.56 -2.38,1.4 -4.97,2.17 -2.59,0.84 -4.97,0.84 l -10.29,0.21 -0.84,-0.21 z"
       inkscape:connector-curvature="0"
       style="fill:#0050a0;fill-opacity:0.58823529;stroke:none" />
    <path
       id="path4827"
       d="m 1054.1803,96.4 c -0.8867,0 -1.2367,-0.79333 -1.05,-2.38 0,-0.56 0.1167,-1.19 0.35,-1.89 0,-0.32667 0.023,-0.58333 0.07,-0.77 0.047,-0.23333 0.07,-0.42 0.07,-0.56 1.0733,-5.0867 2.2633,-10.103 3.57,-15.05 l 4.76,-18.62 c 0,-0.09333 0.07,-0.21 0.21,-0.35 0.14,-0.14 0.28,-0.25667 0.42,-0.35 l 0.49,0 c 0.56,0 1.0033,-0.07 1.33,-0.21 0.28,-0.04667 0.77,-0.07 1.47,-0.07 1.12,0 1.96,0.02333 2.52,0.07 0.84,0.14 1.7033,0.21 2.59,0.21 l 3.64,-0.07 c 0.3733,-0.09333 0.8167,-0.14 1.33,-0.14 l 3.08,-0.14 2.31,0 c 0.8867,0 1.75,0.02333 2.59,0.07 l 1.96,0 c 0.4667,0.04667 1.1433,0.07 2.03,0.07 l 2.66,0 c 0.14,0 0.28,0.02333 0.42,0.07 0.14,0.04667 0.2567,0.09333 0.35,0.14 0.1867,0.09333 0.42,0.14 0.7,0.14 l 0.63,0 c 0.3267,0.23333 0.49,0.46667 0.49,0.7 l 4.97,18.48 c 1.54,5.9267 2.7533,10.943 3.64,15.05 0,0.23333 0.07,0.67667 0.21,1.33 0.1867,0.93333 0.28,1.68 0.28,2.24 0,0.32667 -0.047,0.77 -0.14,1.33 -0.2333,0.46667 -0.56,0.7 -0.98,0.7 l -0.77,0 c -0.6067,0 -1.0733,-0.0233 -1.4,-0.07 l -1.54,0 -1.47,0 -1.19,0 c -0.3267,0 -0.5133,-0.02333 -0.56,-0.07 l -3.85,0 -0.07,-0.14 c -0.093,-0.09333 -0.2333,-0.14 -0.42,-0.14 l -0.21,0.14 c 0,0.09333 -0.047,0.14 -0.14,0.14 l -0.21,0 -0.49,0 c -0.2333,-0.09333 -0.6533,-0.14 -1.26,-0.14 -1.12,-0.09333 -2.0533,-0.14 -2.8,-0.14 -0.5133,-1.0733 -1.12,-3.43 -1.82,-7.07 -0.98,0.14 -2.1,0.21 -3.36,0.21 l -1.82,0 -1.75,0 c -0.1867,0.7 -0.3033,1.2833 -0.35,1.75 -0.047,0.23333 -0.2333,1.0267 -0.56,2.38 -0.3267,1.3533 -0.63,2.2633 -0.91,2.73 l -0.42,0.14 c -0.14,0.04667 -0.2567,0.09333 -0.35,0.14 l -0.14,0 -0.14,0 c -0.28,0 -0.4667,-0.04667 -0.56,-0.14 -0.1867,-0.09333 -0.3033,-0.14 -0.35,-0.14 l -2.66,0.14 -1.96,0 c -0.2333,0.04667 -0.42,0.09333 -0.56,0.14 l -0.28,0 -5.6,0 -0.56,0 c -0.42,0.04667 -1.2833,0.07 -2.59,0.07 l -1.68,0 c -0.28,0.04667 -0.7233,0.07 -1.33,0.07 z"
       inkscape:connector-curvature="0"
       style="fill:#0050a0;fill-opacity:0.58823529;stroke:none" />
    <path
       id="path4829"
       d="m 1130.7303,98.08 c -0.3733,0 -0.8867,-0.0467 -1.54,-0.14 -0.3267,-0.0933 -0.84,-0.14 -1.54,-0.14 -1.7733,0 -3.9667,-0.39667 -6.58,-1.19 l -0.49,0 c -0.3267,0 -0.6767,-0.0933 -1.05,-0.28 -0.093,-0.09333 -0.21,-0.16333 -0.35,-0.21 -0.14,-0.09333 -0.3033,-0.21 -0.49,-0.35 l -1.47,-0.84 c -1.4,-0.79333 -2.6367,-1.89 -3.71,-3.29 -1.0733,-1.4467 -1.9367,-3.0333 -2.59,-4.76 -1.26,-3.1733 -1.89,-6.4167 -1.89,-9.73 0,-3.6867 0.7467,-7.2333 2.24,-10.64 1.5867,-3.5933 3.71,-6.44 6.37,-8.54 2.94,-2.3333 6.2067,-3.5 9.8,-3.5 1.12,0 1.9833,0.04667 2.59,0.14 0,-0.09333 0.07,-0.14 0.21,-0.14 l 0.21,0 c 3.2667,0 6.1833,0.11667 8.75,0.35 2.1933,0.32667 4.2233,1.0033 6.09,2.03 3.7333,2.4733 6.4167,5.18 8.05,8.12 1.7267,3.2667 2.59,7.1167 2.59,11.55 0,4.4333 -1.05,8.5867 -3.15,12.46 l -0.7,1.12 c -0.1867,0.28 -0.3033,0.42 -0.35,0.42 l -0.21,0.35 -0.49,0.28 c -2.0067,2.9867 -5.04,5.0167 -9.1,6.09 -2.7067,0.56 -6.44,0.84 -11.2,0.84 z"
       inkscape:connector-curvature="0"
       style="fill:#0050a0;fill-opacity:0.58823529;stroke:none" />
    <path
       id="path4831"
       d="m 1195.3303,97.1 c -2.0533,-2.0067 -3.8033,-4.0367 -5.25,-6.09 -1.0267,-1.3533 -2.6133,-3.7567 -4.76,-7.21 l -1.19,-1.89 c -0.047,-0.04667 -0.093,-0.07 -0.14,-0.07 l 0,-0.07 -0.35,0 -0.28,0.14 c -0.047,0.60667 -0.07,2.24 -0.07,4.9 0,1.7267 -0.093,3.7567 -0.28,6.09 l -0.07,2.1 c -0.1867,0.51333 -0.3033,0.77 -0.35,0.77 l -0.49,0 -0.21,0 c -5.1333,0.37333 -8.8667,0.56 -11.2,0.56 l -1.05,0 -1.33,0 c -0.5133,0 -0.8867,-0.02333 -1.12,-0.07 l -0.49,0 -2.17,-0.7 -0.14,-0.49 c -0.093,0 -0.1633,-0.09333 -0.21,-0.28 l 0,-0.42 c -0.14,-1.96 -0.2567,-3.3833 -0.35,-4.27 -0.1867,-2.52 -0.3033,-4.3633 -0.35,-5.53 -0.093,-1.12 -0.14,-1.8433 -0.14,-2.17 l -0.35,-3.85 -0.07,-2.1 c -0.047,-0.42 -0.07,-1.0033 -0.07,-1.75 l 0,-0.63 c 0.093,-0.23333 0.14,-0.60667 0.14,-1.12 l 0,-1.19 c 0.047,-0.18667 0.07,-0.39667 0.07,-0.63 l -0.07,-0.56 0,-0.7 c 0,-0.32667 -0.047,-0.58333 -0.14,-0.77 l 0,-0.42 0.07,-1.75 c 0.047,-0.32667 0.07,-0.81667 0.07,-1.47 0.093,-1.4 0.14,-2.73 0.14,-3.99 l 0,-0.7 c -0.047,-0.14 -0.07,-0.44333 -0.07,-0.91 l 0,-0.98 0,-0.7 c -0.14,-0.14 -0.21,-0.28 -0.21,-0.42 0,-0.65333 0.5833,-1.12 1.75,-1.4 0.6067,-0.18667 1.47,-0.28 2.59,-0.28 10.92,0 19.087,0.37333 24.5,1.12 5.32,0.74667 9.0533,2.03 11.2,3.85 0.9333,0.88667 1.5867,1.9367 1.96,3.15 0.42,1.1667 0.63,2.5667 0.63,4.2 0,2.6133 -0.7467,4.8067 -2.24,6.58 -0.98,0.98 -2.1233,1.7967 -3.43,2.45 0.28,0.7 1.0967,2.1 2.45,4.2 0.28,0.32667 0.5367,0.67667 0.77,1.05 0.28,0.37333 0.6067,0.77 0.98,1.19 0.8867,1.2133 1.9133,2.5433 3.08,3.99 0.047,0.18667 0.2333,0.58333 0.56,1.19 0.2333,0.09333 0.35,0.21 0.35,0.35 0.047,0.09333 0.023,0.23333 -0.07,0.42 -0.3733,0.56 -1.47,1.3767 -3.29,2.45 -0.2333,0.23333 -0.5133,0.46667 -0.84,0.7 -0.9333,0.74667 -2.2167,1.5167 -3.85,2.31 -1.4933,0.79333 -2.7767,1.3533 -3.85,1.68 -0.42,0.23333 -0.6767,0.28 -0.77,0.14 z"
       inkscape:connector-curvature="0"
       style="fill:#0050a0;fill-opacity:0.58823529;stroke:none" />
    <path
       id="path4833"
       d="m 1216.1903,96.4 c -0.8867,0 -1.2367,-0.79333 -1.05,-2.38 0,-0.56 0.1167,-1.19 0.35,-1.89 0,-0.32667 0.023,-0.58333 0.07,-0.77 0.047,-0.23333 0.07,-0.42 0.07,-0.56 1.0733,-5.0867 2.2633,-10.103 3.57,-15.05 l 4.76,-18.62 c 0,-0.09333 0.07,-0.21 0.21,-0.35 0.14,-0.14 0.28,-0.25667 0.42,-0.35 l 0.49,0 c 0.56,0 1.0033,-0.07 1.33,-0.21 0.28,-0.04667 0.77,-0.07 1.47,-0.07 1.12,0 1.96,0.02333 2.52,0.07 0.84,0.14 1.7033,0.21 2.59,0.21 l 3.64,-0.07 c 0.3733,-0.09333 0.8167,-0.14 1.33,-0.14 l 3.08,-0.14 2.31,0 c 0.8867,0 1.75,0.02333 2.59,0.07 l 1.96,0 c 0.4667,0.04667 1.1433,0.07 2.03,0.07 l 2.66,0 c 0.14,0 0.28,0.02333 0.42,0.07 0.14,0.04667 0.2567,0.09333 0.35,0.14 0.1867,0.09333 0.42,0.14 0.7,0.14 l 0.63,0 c 0.3267,0.23333 0.49,0.46667 0.49,0.7 l 4.97,18.48 c 1.54,5.9267 2.7533,10.943 3.64,15.05 0,0.23333 0.07,0.67667 0.21,1.33 0.1867,0.93333 0.28,1.68 0.28,2.24 0,0.32667 -0.047,0.77 -0.14,1.33 -0.2333,0.46667 -0.56,0.7 -0.98,0.7 l -0.77,0 c -0.6067,0 -1.0733,-0.0233 -1.4,-0.07 l -1.54,0 -1.47,0 -1.19,0 c -0.3267,0 -0.5133,-0.02333 -0.56,-0.07 l -3.85,0 -0.07,-0.14 c -0.093,-0.09333 -0.2333,-0.14 -0.42,-0.14 l -0.21,0.14 c 0,0.09333 -0.047,0.14 -0.14,0.14 l -0.21,0 -0.49,0 c -0.2333,-0.09333 -0.6533,-0.14 -1.26,-0.14 -1.12,-0.09333 -2.0533,-0.14 -2.8,-0.14 -0.5133,-1.0733 -1.12,-3.43 -1.82,-7.07 -0.98,0.14 -2.1,0.21 -3.36,0.21 l -1.82,0 -1.75,0 c -0.1867,0.7 -0.3033,1.2833 -0.35,1.75 -0.047,0.23333 -0.2333,1.0267 -0.56,2.38 -0.3267,1.3533 -0.63,2.2633 -0.91,2.73 l -0.42,0.14 c -0.14,0.04667 -0.2567,0.09333 -0.35,0.14 l -0.14,0 -0.14,0 c -0.28,0 -0.4667,-0.04667 -0.56,-0.14 -0.1867,-0.09333 -0.3033,-0.14 -0.35,-0.14 l -2.66,0.14 -1.96,0 c -0.2333,0.04667 -0.42,0.09333 -0.56,0.14 l -0.28,0 -5.6,0 -0.56,0 c -0.42,0.04667 -1.2833,0.07 -2.59,0.07 l -1.68,0 c -0.28,0.04667 -0.7233,0.07 -1.33,0.07 z"
       inkscape:connector-curvature="0"
       style="fill:#0050a0;fill-opacity:0.58823529;stroke:none" />
  </g>
  <g
     id="jelly-text-5">
    <path
       id="path4916"
       d="m 887.259,96.245 c -0.79333,0 -1.3067,-0.51333 -1.54,-1.54 -0.23333,-0.51333 -0.35,-1.4467 -0.35,-2.8 0,-4.06 -0.0467,-7.6767 -0.14,-10.85 -0.14,-4.5733 -0.21,-9.4033 -0.21,-14.49 l 0,-15.4 c 0,-0.42 0.18667,-0.81667 0.56,-1.19 0.42,-0.42 0.84,-0.63 1.26,-0.63 l 8.05,0.07 c 1.4933,0.04667 3.4533,0.07 5.88,0.07 3.5,0 6.2067,-0.02333 8.12,-0.07 l 2.59,-0.07 c 2.8,-0.09333 5.11,-0.14 6.93,-0.14 2.94,0 5.74,0.42 8.4,1.26 3.1267,0.93333 5.67,2.5433 7.63,4.83 2.1933,2.4733 3.29,5.81 3.29,10.01 0,7.0933 -1.7967,12.227 -5.39,15.4 -3.1733,2.9867 -7.91,4.48 -14.21,4.48 l -9.59,0 c 0.0467,1.0733 0.07,2.2167 0.07,3.43 0,0.42 -0.0233,0.93333 -0.07,1.54 l 0,2.31 c 0,1.54 -0.32667,2.52 -0.98,2.94 -0.51333,0.42 -1.47,0.63 -2.87,0.63 -2.0533,0 -3.4767,0.02333 -4.27,0.07 -3.22,0 -5.7867,0.04667 -7.7,0.14 z"
       inkscape:connector-curvature="0"
       style="fill:#0050a0;fill-opacity:0.58823529;stroke:none" />
    <path
       id="path4918"
       d="m 954.31,96.525 q -2.94,0 -4.97,-0.14 -1.96,-0.14 -3.71,-0.63 -0.28,0 -0.42,-0.28 -0.14,-0.35 -0.21,-0.49 -0.07,-0.35 -0.07,-0.84 -0.42,-7.07 -0.77,-10.99 -0.35,-4.62 -0.35,-11.55 l 0,-1.75 0.07,-2.66 0.14,-3.15 0.07,-1.75 q 0.07,-0.49 0.07,-1.54 l 0,-2.66 q 0,-1.33 0.07,-1.75 0,-0.21 0.28,-0.21 0.63,0 1.12,-0.28 0.21,0 0.63,0 0.49,-0.07 0.84,0 l 2.31,0 3.71,0 2.03,0 3.92,0 q 1.26,0 1.89,0.07 l 2.1,0.07 q 0.77,0 1.12,0.14 0.42,0.07 0.63,0.42 0.21,0.21 0.28,0.84 0.07,0.63 0.07,1.4 l 0,0.56 0,0.98 q 0,0.7 0.07,0.98 l 0,0.7 0,0.49 q 0.07,0.28 0.07,0.7 l -0.07,2.1 q -0.07,0.7 -0.07,2.03 0,0.77 0.14,1.05 0.21,0.35 0.63,0.35 0.14,0 0.7,-0.14 0.21,0 0.56,-0.07 0.35,-0.07 0.77,-0.07 l 0.7,0 q 0.35,0.14 1.26,0.14 0.35,0 0.63,-0.07 0.35,-0.07 0.63,-0.07 0.63,0 0.63,-0.14 l 0,-2.87 0,-1.05 q 0,-1.05 0.07,-1.68 l 0,-1.96 q 0.07,-0.7 0.07,-1.96 0,-1.19 0.07,-1.61 l 0,-1.05 0.21,0 0.35,0 q 0.42,0 0.42,-0.28 l 3.36,0 q 2.1,0 3.15,0.14 1.82,0.14 2.94,0.14 l 4.41,-0.14 q 1.05,-0.14 2.59,-0.14 l 1.82,0 q 1.4,0 1.89,0.28 0.49,0.28 0.49,1.4 l 0,5.53 q 0,1.4 -0.07,2.24 l -0.07,1.68 q 0,1.12 -0.14,3.36 l -0.07,1.19 0.07,1.12 -0.7,22.19 q 0,0.21 -0.42,0.91 -0.42,0.56 -0.84,0.56 l -4.9,0 q -2.73,0 -5.39,-0.21 -1.75,-0.07 -5.25,-0.07 l -1.19,0 q -0.98,0 -1.33,-0.7 -0.28,-0.91 -0.35,-2.38 l -0.7,-11.55 -0.7,0 q -1.68,0 -2.45,-0.07 -0.7,-0.14 -0.7,-0.14 l -2.87,0 q -0.28,0 -0.35,0.21 -0.07,0.21 -0.07,0.49 0,0.21 0,0.35 l 0,11.62 0,1.33 q 0,0.21 -0.07,0.42 -0.07,0.14 -0.07,0.28 -0.07,0.21 -0.35,0.21 -0.07,0 -0.21,0.07 -0.14,0.07 -0.35,0.14 -2.59,0 -4.9,0.21 l -4.9,0 z"
       inkscape:connector-curvature="0"
       style="fill:#0050a0;fill-opacity:0.58823529;stroke:none" />
    <path
       id="path4920"
       d="m 1025.23,105 q -0.42,0 -2.1,-0.56 -0.28,-0.07 -0.84,-0.35 -0.49,-0.21 -0.91,-0.21 -0.28,0 -0.98,-0.35 -0.49,-0.35 -0.91,-0.35 l -0.84,-0.21 q -0.42,0 -0.56,-0.07 -0.21,0 -0.21,-0.07 -2.24,-0.49 -4.55,-1.61 l -4.55,-1.89 q -0.49,-0.21 -0.49,-0.7 0,-0.42 0.21,-0.84 l 1.89,-3.29 q 0.7,-1.33 1.96,-3.15 0.49,-0.49 0.98,-1.75 0.42,-0.98 0.42,-1.19 -1.05,-2.03 -2.66,-4.34 -1.61,-2.8 -2.59,-3.71 -0.14,-0.35 -0.63,-1.12 -1.12,-1.96 -1.05,-1.82 l -1.19,-2.1 q -0.49,-0.7 -1.19,-2.1 -0.42,-0.7 -0.91,-1.75 -0.63,-1.05 -0.7,-1.26 -0.56,-0.63 -1.89,-3.36 -1.26,-2.8 -1.26,-3.36 0,-0.28 0.56,-0.7 0.56,-0.49 1.26,-0.98 2.24,-1.05 2.94,-1.26 0.91,-0.42 1.54,-0.7 0.7,-0.28 1.12,-0.49 1.61,-0.77 4.48,-1.89 0.56,-0.28 2.66,-1.12 0.77,-0.21 1.4,-0.21 0.42,0 0.7,0.28 0.28,0.14 0.84,1.12 l 2.45,5.32 q 2.1,4.41 2.94,5.95 0.14,0.21 0.28,0.56 0.14,0.28 0.28,0.42 0.42,0.56 0.77,0.56 0.21,0 0.35,-0.21 0.21,-0.21 0.28,-0.35 l 4.76,-12.53 q 0.28,-0.91 1.19,-1.4 0.77,-0.49 1.89,-0.35 4.55,1.47 6.72,2.38 4.27,1.75 6.3,3.08 0.7,0.35 0.91,0.91 0.28,0.49 0.07,0.98 -0.07,0.63 -0.35,1.05 l -0.42,0.84 -11.2,24.29 -0.56,1.4 -6.86,13.09 q -0.49,0.84 -0.91,1.12 -0.35,0.35 -0.84,0.35 z"
       inkscape:connector-curvature="0"
       style="fill:#0050a0;fill-opacity:0.58823529;stroke:none" />
    <path
       id="path4922"
       d="m 1061.17,97.72 -1.61,-0.28 q -2.31,-0.35 -3.85,-0.84 -0.84,-0.07 -1.47,-0.49 -0.56,-0.21 -0.7,-0.56 l -1.54,-8.68 0,-0.35 q 0,-0.49 0.07,-0.7 0.14,-0.28 0.49,-0.35 4.55,1.75 8.96,1.75 1.4,0 2.17,0.07 2.66,0 3.85,-0.7 0.63,-0.42 0.63,-1.19 0,-1.12 -0.7,-1.82 -0.7,-0.77 -2.03,-1.33 l -2.24,-0.84 q -0.98,-0.21 -2.24,-0.77 0,-0.07 -0.07,-0.07 -0.07,-0.07 -0.14,-0.21 -0.28,-0.07 -1.19,-0.7 l -0.42,-0.21 q 0.14,0 0.14,-0.07 0,-0.07 -0.21,-0.14 -0.21,-0.14 -0.84,-0.42 -0.56,-0.35 -0.98,-0.77 -0.63,-0.35 -0.63,-0.84 l 0,-0.35 q -1.75,0 -3.01,-3.64 -1.05,-3.71 -1.05,-5.25 0,-6.51 5.6,-10.01 4.55,-2.87 12.53,-3.85 5.18,-0.56 12.88,-0.56 0.98,0.35 1.54,0.42 1.26,0.07 1.68,0.84 0.21,0.35 0.35,1.4 0.21,1.12 0.42,6.51 0.14,0.14 0.14,0.42 0,0.56 -1.54,0.91 -1.68,0.21 -2.17,0.21 l -1.61,0.21 q -2.73,0.35 -3.57,0.49 -2.87,0.49 -3.99,1.75 -0.7,0.84 -0.7,1.75 0,0.49 0.14,0.77 0.14,0.28 0.7,0.63 0.63,0.35 3.64,1.75 3.22,1.4 6.44,3.64 2.73,1.89 3.92,5.04 0.63,1.33 0.63,3.5 0,1.96 -0.49,3.36 -1.82,4.62 -6.86,7.56 -2.38,1.4 -4.97,2.17 -2.59,0.84 -4.97,0.84 l -10.29,0.21 -0.84,-0.21 z"
       inkscape:connector-curvature="0"
       style="fill:#0050a0;fill-opacity:0.58823529;stroke:none" />
    <path
       id="path4924"
       d="m 1097.09,96.385 c -0.8867,0 -1.2367,-0.79333 -1.05,-2.38 0,-0.56 0.1167,-1.19 0.35,-1.89 0,-0.32667 0.023,-0.58333 0.07,-0.77 0.047,-0.23333 0.07,-0.42 0.07,-0.56 1.0733,-5.0867 2.2633,-10.103 3.57,-15.05 l 4.76,-18.62 c 0,-0.09333 0.07,-0.21 0.21,-0.35 0.14,-0.14 0.28,-0.25667 0.42,-0.35 l 0.49,0 c 0.56,0 1.0033,-0.07 1.33,-0.21 0.28,-0.04667 0.77,-0.07 1.47,-0.07 1.12,0 1.96,0.02333 2.52,0.07 0.84,0.14 1.7033,0.21 2.59,0.21 l 3.64,-0.07 c 0.3733,-0.09333 0.8167,-0.14 1.33,-0.14 l 3.08,-0.14 2.31,0 c 0.8867,0 1.75,0.02333 2.59,0.07 l 1.96,0 c 0.4667,0.04667 1.1433,0.07 2.03,0.07 l 2.66,0 c 0.14,0 0.28,0.02333 0.42,0.07 0.14,0.04667 0.2567,0.09333 0.35,0.14 0.1867,0.09333 0.42,0.14 0.7,0.14 l 0.63,0 c 0.3267,0.23333 0.49,0.46667 0.49,0.7 l 4.97,18.48 c 1.54,5.9267 2.7533,10.943 3.64,15.05 0,0.23333 0.07,0.67667 0.21,1.33 0.1867,0.93333 0.28,1.68 0.28,2.24 0,0.32667 -0.047,0.77 -0.14,1.33 -0.2333,0.46667 -0.56,0.7 -0.98,0.7 l -0.77,0 c -0.6067,0 -1.0733,-0.02333 -1.4,-0.07 l -1.54,0 -1.47,0 -1.19,0 c -0.3267,0 -0.5133,-0.02333 -0.56,-0.07 l -3.85,0 -0.07,-0.14 c -0.093,-0.09333 -0.2333,-0.14 -0.42,-0.14 l -0.21,0.14 c 0,0.09333 -0.047,0.14 -0.14,0.14 l -0.21,0 -0.49,0 c -0.2333,-0.09333 -0.6533,-0.14 -1.26,-0.14 -1.12,-0.09333 -2.0533,-0.14 -2.8,-0.14 -0.5133,-1.0733 -1.12,-3.43 -1.82,-7.07 -0.98,0.14 -2.1,0.21 -3.36,0.21 l -1.82,0 -1.75,0 c -0.1867,0.7 -0.3033,1.2833 -0.35,1.75 -0.047,0.23333 -0.2333,1.0267 -0.56,2.38 -0.3267,1.3533 -0.63,2.2633 -0.91,2.73 l -0.42,0.14 c -0.14,0.04667 -0.2567,0.09333 -0.35,0.14 l -0.14,0 -0.14,0 c -0.28,0 -0.4667,-0.04667 -0.56,-0.14 -0.1867,-0.09333 -0.3033,-0.14 -0.35,-0.14 l -2.66,0.14 -1.96,0 c -0.2333,0.04667 -0.42,0.09333 -0.56,0.14 l -0.28,0 -5.6,0 -0.56,0 c -0.42,0.04667 -1.2833,0.07 -2.59,0.07 l -1.68,0 c -0.28,0.04667 -0.7233,0.07 -1.33,0.07 z"
       inkscape:connector-curvature="0"
       style="fill:#0050a0;fill-opacity:0.58823529;stroke:none" />
    <path
       id="path4926"
       d="m 1172.31,96.665 -0.91,-0.14 -1.12,0 q -1.05,-0.14 -3.64,-0.28 -0.56,0 -1.05,-0.07 -0.49,-0.07 -0.91,-0.07 l -1.54,0 -0.7,-0.07 q -2.24,0 -3.29,0.07 -1.05,0.14 -3.29,0.14 l -1.4,0 -1.26,0.07 -0.21,-0.28 0,-0.77 0,-1.75 0,-1.82 0,-1.19 0,-4.76 q 0,-1.68 -0.14,-2.45 l 0,-1.68 0.28,-3.01 q 0.21,-2.8 0.21,-8.05 0.14,-8.47 1.05,-12.25 0.49,-2.03 1.61,-2.59 l 8.19,0.07 q 1.05,0.07 3.01,0.07 l 3.36,0 q 0.35,0.07 1.26,0.14 0.98,0.07 1.47,0.35 0.42,0.35 0.56,0.98 0.21,0.56 0.21,1.68 l -0.07,0.56 0,0.84 q -0.21,0.49 -0.21,0.98 -0.14,0.56 -0.07,1.12 l 0,1.05 q 0.07,0.35 0.07,0.98 l 0.07,0.56 0,1.61 0.07,2.24 q 0.07,0.7 0.07,1.96 0.14,0.98 0.35,1.33 0,0.49 -0.07,1.05 -0.07,0.56 -0.07,1.12 -0.07,0.84 -0.07,2.52 0,1.61 0.07,2.38 0,1.12 0.35,2.31 0.7,0.28 1.61,0.28 2.31,0 4.76,-0.07 2.52,-0.07 4.48,-0.42 0.42,0.07 0.77,0.56 0.42,0.49 0.42,0.84 l -0.49,12.04 q -0.14,0.42 -0.56,0.56 -1.19,0.56 -3.29,0.7 -2.8,0.42 -3.71,0.42 l -1.19,0 q -1.4,0 -2.1,0.07 -1.4,0.14 -1.96,0.14 l -0.98,-0.07 z"
       inkscape:connector-curvature="0"
       style="fill:#0050a0;fill-opacity:0.58823529;stroke:none" />
    <path
       id="path4928"
       d="m 1195.16,97.22 q -1.26,0 -1.61,-2.52 -0.21,-1.05 -0.21,-1.89 0,-1.12 -0.07,-1.4 -0.07,-2.03 -0.35,-6.44 l -0.21,-2.66 q -0.42,-6.16 -0.42,-9.1 l 0,-17.01 q 0,-0.56 1.26,-0.84 0.7,-0.21 1.96,-0.21 0.84,0 1.82,0.14 0.98,0.07 1.47,0.07 1.05,0.14 3.29,0.14 l 0.28,-0.21 3.08,0 q 0.21,0.21 0.49,0.21 l 0.28,0 q 0.07,-0.07 0.35,-0.07 0.14,-0.07 0.42,-0.07 0.07,-0.07 0.14,-0.07 0.07,0 0.07,0 0.21,0 0.49,0.14 0.28,0.07 0.42,0.07 l 5.18,0 0.21,12.04 q 0,0.07 -0.14,0.49 -0.07,0.35 -0.14,0.98 -0.21,2.52 -0.21,3.99 l 0,13.65 -0.21,2.66 q -0.21,1.75 -0.14,2.87 0,1.47 -0.14,2.38 -0.07,0.84 -0.42,1.33 -0.42,0.49 -1.33,0.49 l -0.07,-0.07 -0.21,-0.07 q -0.14,0 -0.14,0.07 l -0.35,0 q -0.42,0.14 -0.49,0.21 -0.35,0 -1.61,-0.21 l -0.98,-0.07 q -0.35,0 -0.42,0.28 l -5.25,0 -0.98,0 -1.82,0.35 -1.68,0.21 -1.61,0.14 z"
       inkscape:connector-curvature="0"
       style="fill:#0050a0;fill-opacity:0.58823529;stroke:none" />
    <path
       id="path4930"
       d="m 1221.91,96.385 c -0.8867,0 -1.2367,-0.79333 -1.05,-2.38 0,-0.56 0.1167,-1.19 0.35,-1.89 0,-0.32667 0.023,-0.58333 0.07,-0.77 0.047,-0.23333 0.07,-0.42 0.07,-0.56 1.0733,-5.0867 2.2633,-10.103 3.57,-15.05 l 4.76,-18.62 c 0,-0.09333 0.07,-0.21 0.21,-0.35 0.14,-0.14 0.28,-0.25667 0.42,-0.35 l 0.49,0 c 0.56,0 1.0033,-0.07 1.33,-0.21 0.28,-0.04667 0.77,-0.07 1.47,-0.07 1.12,0 1.96,0.02333 2.52,0.07 0.84,0.14 1.7033,0.21 2.59,0.21 l 3.64,-0.07 c 0.3733,-0.09333 0.8167,-0.14 1.33,-0.14 l 3.08,-0.14 2.31,0 c 0.8867,0 1.75,0.02333 2.59,0.07 l 1.96,0 c 0.4667,0.04667 1.1433,0.07 2.03,0.07 l 2.66,0 c 0.14,0 0.28,0.02333 0.42,0.07 0.14,0.04667 0.2567,0.09333 0.35,0.14 0.1867,0.09333 0.42,0.14 0.7,0.14 l 0.63,0 c 0.3267,0.23333 0.49,0.46667 0.49,0.7 l 4.97,18.48 c 1.54,5.9267 2.7533,10.943 3.64,15.05 0,0.23333 0.07,0.67667 0.21,1.33 0.1867,0.93333 0.28,1.68 0.28,2.24 0,0.32667 -0.047,0.77 -0.14,1.33 -0.2333,0.46667 -0.56,0.7 -0.98,0.7 l -0.77,0 c -0.6067,0 -1.0733,-0.02333 -1.4,-0.07 l -1.54,0 -1.47,0 -1.19,0 c -0.3267,0 -0.5133,-0.02333 -0.56,-0.07 l -3.85,0 -0.07,-0.14 c -0.093,-0.09333 -0.2333,-0.14 -0.42,-0.14 l -0.21,0.14 c 0,0.09333 -0.047,0.14 -0.14,0.14 l -0.21,0 -0.49,0 c -0.2333,-0.09333 -0.6533,-0.14 -1.26,-0.14 -1.12,-0.09333 -2.0533,-0.14 -2.8,-0.14 -0.5133,-1.0733 -1.12,-3.43 -1.82,-7.07 -0.98,0.14 -2.1,0.21 -3.36,0.21 l -1.82,0 -1.75,0 c -0.1867,0.7 -0.3033,1.2833 -0.35,1.75 -0.047,0.23333 -0.2333,1.0267 -0.56,2.38 -0.3267,1.3533 -0.63,2.2633 -0.91,2.73 l -0.42,0.14 c -0.14,0.04667 -0.2567,0.09333 -0.35,0.14 l -0.14,0 -0.14,0 c -0.28,0 -0.4667,-0.04667 -0.56,-0.14 -0.1867,-0.09333 -0.3033,-0.14 -0.35,-0.14 l -2.66,0.14 -1.96,0 c -0.2333,0.04667 -0.42,0.09333 -0.56,0.14 l -0.28,0 -5.6,0 -0.56,0 c -0.42,0.04667 -1.2833,0.07 -2.59,0.07 l -1.68,0 c -0.28,0.04667 -0.7233,0.07 -1.33,0.07 z"
       inkscape:connector-curvature="0"
       style="fill:#0050a0;fill-opacity:0.58823529;stroke:none" />
  </g>
  <path
     d="m 80,128.594 c 1.8001,20.393 15.984,239.78 30.844,268.25 14.859,28.471 82.72,45.339 91.094,49.906 l -17.885,23.25 41.479,-28.458 -25.208,-38.844 4.4479,26.583 c 0,0 -62.145,-5.1821 -79.771,-43.188 -17.62,-38.01 -29.745,-258.5 -29.745,-258.5 z"
     style="fill:#0050a0;fill-opacity:0.58823529;stroke:none"
     id="jelly-arrow-1"
     inkscape:connector-curvature="0" />
  <path
     d="m 260,126.594 c 1.8001,20.393 10.984,55.779 25.844,84.25 14.859,28.471 39.72,45.339 48.094,49.906 l -19.885,9.25 39.479,-2.4583 -13.208,-39.844 -1.5521,24.583 c 0,0 -26.145,-9.1821 -43.771,-47.187 -17.626,-38.0049 -24.75,-78.5 -24.75,-78.5 z"
     style="fill:#0050a0;fill-opacity:0.58823529;stroke:none"
     id="jelly-arrow-2"
     inkscape:connector-curvature="0" />
  <path
     d="m 643,107.092 0,68.781 -13.062,0 19.062,33.035 19.062,-33.035 -13.062,0 0,-68.781 -12,0 z"
     style="fill:#0050a0;fill-opacity:0.58823529;stroke:none"
     id="jelly-arrow-3"
     inkscape:connector-curvature="0" />
  <path
     d="m 1040,126.594 c -1.8001,20.393 -10.984,55.779 -25.844,84.25 -14.85902,28.471 -39.72,45.339 -48.094,49.906 l 19.88498,9.25 -39.47898,-2.4583 13.208,-39.844 1.5521,24.583 c 0,0 26.14498,-9.1821 43.771,-47.187 17.626,-38.0049 24.75,-78.5 24.75,-78.5 z"
     style="fill:#0050a0;fill-opacity:0.58823529;stroke:none"
     id="jelly-arrow-4"
     inkscape:connector-curvature="0" />
  <path
     d="m 1220,128.594 c -1.8001,20.393 -15.984,239.78 -30.844,268.25 -14.859,28.471 -82.72,45.339 -91.094,49.906 l 17.885,23.25 -41.479,-28.458 25.208,-38.844 -4.4479,26.583 c 0,0 62.145,-5.1821 79.771,-43.188 17.62,-38.01 29.745,-258.5 29.745,-258.5 z"
     style="fill:#0050a0;fill-opacity:0.58823529;stroke:none"
     id="jelly-arrow-5"
     inkscape:connector-curvature="0" />
  <path
     id="circle-1"
     d="m 120,330 c 27.614,0 50,22.386 50,50 0,27.614 -22.386,50 -50,50 -27.614,0 -50,-22.386 -50,-50 0,-27.614 22.386,-50 50,-50 z"
     inkscape:connector-curvature="0"
     style="fill:#0050a0;fill-opacity:0.58823529;stroke:none" />
  <path
     id="circle-2"
     d="m 320,130 c 27.614,0 50,22.386 50,50 0,27.614 -22.386,50 -50,50 -27.614,0 -50,-22.386 -50,-50 0,-27.614 22.386,-50 50,-50 z"
     inkscape:connector-curvature="0"
     style="fill:#0050a0;fill-opacity:0.58823529;stroke:none" />
  <path
     id="circle-3"
     d="m 650,50 c 27.614,0 50,22.386 50,50 0,27.614 -22.386,50 -50,50 -27.614,0 -50,-22.386 -50,-50 0,-27.614 22.386,-50 50,-50 z"
     inkscape:connector-curvature="0"
     style="fill:#0050a0;fill-opacity:0.58823529;stroke:none" />
  <path
     id="circle-4"
     d="m 980,130 c 27.614,0 50,22.386 50,50 0,27.614 -22.386,50 -50,50 -27.614,0 -50,-22.386 -50,-50 0,-27.614 22.386,-50 50,-50 z"
     inkscape:connector-curvature="0"
     style="fill:#0050a0;fill-opacity:0.58823529;stroke:none" />
  <path
     id="circle-5"
     d="m 1180,330 c 27.614,0 50,22.386 50,50 0,27.614 -22.386,50 -50,50 -27.614,0 -50,-22.386 -50,-50 0,-27.614 22.386,-50 50,-50 z"
     inkscape:connector-curvature="0"
     style="fill:#0050a0;fill-opacity:0.58823529;stroke:none" />
</svg>
